<svg width="70" height="70" viewBox="0 0 70 70" fill="none" xmlns="http://www.w3.org/2000/svg">
<circle cx="35" cy="35" r="34.5" fill="#574AE2" stroke="#574AE2"/>
<path d="M48.477 22.6399C45.9979 21.5218 43.3405 20.6955 40.5615 20.2255C40.5368 20.2208 40.5111 20.2239 40.4882 20.2343C40.4653 20.2448 40.4462 20.2621 40.4335 20.2839C40.0932 20.8818 39.7141 21.6612 39.4483 22.2769C36.501 21.8366 33.5046 21.8366 30.5573 22.2769C30.2614 21.5945 29.9276 20.9291 29.5576 20.2839C29.545 20.2618 29.5261 20.2441 29.5032 20.2331C29.4803 20.2221 29.4546 20.2183 29.4296 20.2223C26.6523 20.6922 23.9948 21.5186 21.5141 22.6383C21.4927 22.6472 21.4746 22.6625 21.4622 22.682C16.4196 30.0952 15.0374 37.3253 15.7164 44.4647C15.7183 44.4822 15.7237 44.4991 15.7323 44.5144C15.741 44.5297 15.7526 44.5431 15.7666 44.5538C18.7098 46.6966 21.9926 48.329 25.4775 49.3825C25.5018 49.39 25.5278 49.3899 25.552 49.3824C25.5763 49.3749 25.5978 49.3603 25.6136 49.3404C26.3622 48.3357 27.0298 47.2744 27.6002 46.1596C27.6342 46.0948 27.6018 46.017 27.5337 45.9911C26.487 45.5969 25.4728 45.1212 24.5004 44.5684C24.4829 44.5584 24.4682 44.5442 24.4576 44.5272C24.4469 44.5101 24.4407 44.4907 24.4394 44.4706C24.4381 44.4505 24.4418 44.4304 24.4502 44.4121C24.4586 44.3939 24.4714 44.3779 24.4874 44.3658C24.6916 44.2151 24.8958 44.058 25.0902 43.9008C25.1077 43.8866 25.1288 43.8776 25.1511 43.8748C25.1734 43.8719 25.1961 43.8753 25.2166 43.8846C31.5798 46.7429 38.4712 46.7429 44.7599 43.8846C44.7805 43.8748 44.8034 43.8709 44.826 43.8735C44.8486 43.8761 44.8701 43.885 44.8879 43.8992C45.0823 44.058 45.2849 44.2151 45.4907 44.3658C45.5069 44.3777 45.5199 44.3934 45.5286 44.4115C45.5372 44.4297 45.5412 44.4496 45.5403 44.4697C45.5393 44.4898 45.5334 44.5093 45.523 44.5265C45.5127 44.5437 45.4982 44.5581 45.481 44.5684C44.512 45.1258 43.5041 45.5973 42.446 45.9894C42.4298 45.9953 42.415 46.0046 42.4026 46.0167C42.3902 46.0288 42.3806 46.0434 42.3743 46.0595C42.368 46.0756 42.3652 46.0928 42.3661 46.1101C42.367 46.1274 42.3716 46.1442 42.3796 46.1596C42.9629 47.2728 43.6305 48.3325 44.3645 49.3387C44.3798 49.3594 44.401 49.3748 44.4254 49.3829C44.4498 49.3911 44.476 49.3915 44.5006 49.3841C47.9915 48.3335 51.2796 46.7004 54.2261 44.5538C54.2405 44.5437 54.2525 44.5307 54.2615 44.5156C54.2704 44.5006 54.276 44.4837 54.278 44.4663C55.0881 36.2121 52.9201 29.0404 48.5273 22.6853C48.5165 22.6646 48.4987 22.6485 48.477 22.6399ZM28.5513 40.1172C26.6361 40.1172 25.0562 38.385 25.0562 36.2607C25.0562 34.1348 26.6053 32.4042 28.5513 32.4042C30.512 32.4042 32.0773 34.1494 32.0465 36.2607C32.0465 38.3867 30.4974 40.1172 28.5513 40.1172V40.1172ZM41.4738 40.1172C39.5569 40.1172 37.9786 38.385 37.9786 36.2607C37.9786 34.1348 39.5261 32.4042 41.4738 32.4042C43.4344 32.4042 44.9997 34.1494 44.9689 36.2607C44.9689 38.3867 43.4361 40.1172 41.4738 40.1172V40.1172Z" fill="white"/>
</svg>
