<svg width="71" height="71" viewBox="0 0 71 71" fill="none" xmlns="http://www.w3.org/2000/svg">
<circle cx="35.75" cy="35.87" r="34.5" fill="#574AE2" stroke="#574AE2"/>
<path d="M53.8756 24.6386C52.5226 25.2381 51.0691 25.6432 49.5411 25.8263C51.1178 24.8829 52.2973 23.3981 52.8597 21.649C51.3784 22.5289 49.7572 23.1482 48.0666 23.48C46.9297 22.2661 45.4239 21.4616 43.7829 21.1912C42.1419 20.9208 40.4575 21.1998 38.9913 21.9848C37.5251 22.7698 36.3591 24.017 35.6743 25.5326C34.9895 27.0482 34.8242 28.7474 35.2041 30.3666C32.2027 30.2159 29.2665 29.4358 26.586 28.0769C23.9056 26.7179 21.5409 24.8106 19.6453 22.4786C18.9972 23.5967 18.6245 24.893 18.6245 26.2735C18.6237 27.5164 18.9298 28.7401 19.5155 29.8363C20.1012 30.9325 20.9483 31.8671 21.9819 32.5573C20.7832 32.5192 19.6111 32.1953 18.5629 31.6127V31.7099C18.5628 33.453 19.1657 35.1424 20.2694 36.4916C21.3732 37.8407 22.9097 38.7665 24.6182 39.1117C23.5063 39.4127 22.3405 39.457 21.209 39.2414C21.691 40.7412 22.63 42.0528 23.8945 42.9924C25.159 43.9321 26.6857 44.4528 28.2608 44.4816C25.5869 46.5807 22.2847 47.7193 18.8853 47.7143C18.2832 47.7144 17.6815 47.6793 17.0835 47.609C20.534 49.8275 24.5507 51.005 28.6529 51.0004C42.5395 51.0004 50.1309 39.499 50.1309 29.524C50.1309 29.1999 50.1228 28.8726 50.1083 28.5485C51.5849 27.4807 52.8595 26.1583 53.8724 24.6435L53.8756 24.6386Z" fill="white"/>
</svg>
