<svg width="127" height="127" viewBox="0 0 127 127" fill="none" xmlns="http://www.w3.org/2000/svg">
<path d="M63.5 126C98.0178 126 126 98.0178 126 63.5C126 28.9822 98.0178 1 63.5 1C28.9822 1 1 28.9822 1 63.5C1 98.0178 28.9822 126 63.5 126Z" fill="white" stroke="#FF6500" stroke-width="0.322906"/>
<path opacity="0.5" d="M35.2458 101.214L30.3896 107.395L29.5066 106.701L33.6691 101.404L32.2816 100.268L32.9753 99.3855L35.2458 101.214Z" fill="#FF6500"/>
<path opacity="0.5" d="M26.9208 104.557L24.7765 102.539L25.5333 101.719L26.8578 102.98L28.3714 101.341L27.2361 100.268L27.993 99.4485L29.1282 100.521L30.6418 98.8809L29.3174 97.6196L30.0742 96.7997L32.2185 98.8179L26.9208 104.557Z" fill="#FF6500"/>
<path opacity="0.5" d="M21.623 99.1963L22.443 98.4395L23.1367 99.1963L28.119 94.6554L28.8758 95.4753L23.8935 100.016L24.5872 100.773L23.7674 101.53L21.623 99.1963Z" fill="#FF6500"/>
<path opacity="0.5" d="M20.7401 97.9981L19.8572 96.9259L20.7401 96.2322L22.1276 95.6646L22.5691 96.2322L21.3708 96.8628L21.6862 97.2412L20.7401 97.9981Z" fill="#FF6500"/>
<path opacity="0.5" d="M20.0464 94.6555C19.1635 95.2862 18.3436 95.097 17.776 94.214C17.1454 93.3311 17.3346 92.5743 18.2175 91.9436L19.1004 91.376L19.7311 92.322L18.8482 92.8896C18.5328 93.0788 18.4698 93.3311 18.659 93.5834C18.8482 93.8356 19.1004 93.8987 19.3527 93.7095L19.9203 93.3311C20.2357 93.1419 20.3618 92.5743 20.4249 91.7544C20.4249 90.8714 20.7402 90.2408 21.3078 89.8624L22.1277 89.2948C23.0107 88.6641 23.8305 88.7902 24.3981 89.7362C25.0288 90.6192 24.8396 91.376 23.9566 92.0067L23.0737 92.5743L22.443 91.6283L23.326 91.0607C23.6413 90.8715 23.7044 90.6192 23.5152 90.3669C23.326 90.1146 23.0737 90.0516 22.8214 90.2408L22.0646 90.7453C21.7493 90.9345 21.5601 91.5021 21.5601 92.3851C21.5601 93.268 21.2447 93.8987 20.6141 94.2771L20.0464 94.6555Z" fill="#FF6500"/>
<path opacity="0.5" d="M14.7488 88.9163L14.055 87.4657C13.6135 86.5827 13.8658 85.889 14.8749 85.3845L15.947 84.8799C16.7039 84.5015 17.3345 84.6276 17.8391 85.1953C17.9652 85.3214 18.0914 85.5106 18.2175 85.8259L18.2806 86.0151L21.3078 84.5646L21.8124 85.5737L14.7488 88.9163ZM15.2533 87.4026L17.2715 86.3935L17.1453 86.1413C17.0823 86.0151 17.0192 85.889 16.9562 85.889C16.767 85.7629 16.5777 85.6998 16.3885 85.8259L15.3164 86.3305C15.001 86.4566 14.8749 86.7089 15.0641 87.0242L15.2533 87.4026Z" fill="#FF6500"/>
<path opacity="0.5" d="M12.6675 84.5015L11.5953 81.7896L12.6675 81.4112L13.2982 83.114L15.3794 82.2942L14.8118 80.8436L15.8839 80.4652L16.4516 81.9158L18.5328 81.0959L17.9021 79.3931L18.9743 79.0146L20.0464 81.7265L12.6675 84.5015Z" fill="#FF6500"/>
<path opacity="0.5" d="M11.0909 80.1498L10.6494 78.5731C10.3971 77.6271 10.7755 76.9965 11.8477 76.6811L12.9829 76.3658C13.6767 76.1766 14.1812 76.3658 14.5596 76.8703L17.713 74.663L18.0283 75.8612L15.001 77.8163L15.0641 77.9425L18.3437 76.9965L18.659 78.0686L11.0909 80.1498ZM11.8477 78.7624L13.992 78.1317L13.9289 77.8794C13.8659 77.7533 13.8659 77.6271 13.8028 77.5641C13.6767 77.3749 13.4874 77.3118 13.2352 77.3749L12.1 77.6902C11.7846 77.8163 11.6585 78.0055 11.7216 78.3209L11.8477 78.7624Z" fill="#FF6500"/>
<path opacity="0.5" d="M9.76635 75.2938L9.45102 73.654C9.26181 72.6449 9.70331 72.0773 10.7755 71.8881L11.9107 71.6989C12.7305 71.5728 13.2981 71.825 13.6766 72.4557C13.7396 72.6449 13.8658 72.8341 13.9288 73.2125L13.9919 73.4017L17.2714 72.771L17.4606 73.9063L9.76635 75.2938ZM10.6493 73.9693L12.8567 73.5278L12.7936 73.2756C12.7936 73.1494 12.7305 73.0233 12.7305 72.9602C12.6044 72.771 12.4152 72.708 12.1629 72.771L11.0277 72.9602C10.6493 73.0233 10.5232 73.2125 10.5862 73.5278L10.6493 73.9693Z" fill="#FF6500"/>
<path opacity="0.5" d="M8.94656 70.5006L8.63123 67.5995L9.76644 67.4734L9.95563 69.2393L12.163 68.987L12.0369 67.4103L13.1721 67.2842L13.2982 68.8609L15.5056 68.6086L15.3164 66.8427L16.4516 66.7166L16.767 69.6177L8.94656 70.5006Z" fill="#FF6500"/>
<path opacity="0.5" d="M8.505 62.9325H9.64021V64.0046L16.3885 63.8785V65.0137L9.64021 65.1399V66.212H8.505V62.9325Z" fill="#FF6500"/>
<path opacity="0.5" d="M15.0641 58.5808C16.1362 58.6439 16.7038 59.2115 16.5777 60.3467C16.5146 61.4188 15.947 61.9234 14.8118 61.8603L8.505 61.4188L8.5681 60.2836L14.8749 60.7251C15.2533 60.7251 15.4424 60.599 15.4424 60.2836C15.4424 59.9683 15.3163 59.7791 14.9379 59.7791L8.63115 59.3376L8.6942 58.2024L15.0641 58.5808Z" fill="#FF6500"/>
<path opacity="0.5" d="M14.4964 53.9768L17.3344 54.0399L17.1452 55.1751L15.4424 55.112L15.2532 56.2472L16.8929 56.7518L16.7037 57.887L14.0549 57.0671L9.13562 55.4904L9.38791 53.9768H14.4964ZM14.3072 55.112L11.0276 55.049L14.181 55.995L14.3072 55.112Z" fill="#FF6500"/>
<path opacity="0.5" d="M10.5862 48.553L11.6584 48.8053L11.4062 49.8143L17.9652 51.4541L17.7129 52.5262L11.1539 50.8865L10.9016 51.8956L9.82947 51.6433L10.5862 48.553Z" fill="#FF6500"/>
<path opacity="0.5" d="M11.0277 47.1025L11.9737 44.3275L13.0459 44.7059L12.4783 46.4087L14.6226 47.1656L15.1271 45.715L16.1993 46.0934L15.6947 47.544L17.839 48.2377L18.4066 46.5349L19.4788 46.9133L18.5328 49.6883L11.0277 47.1025Z" fill="#FF6500"/>
<path opacity="0.5" d="M14.9379 37.7054L15.947 38.21L15.5055 39.156L21.56 42.1202L21.0555 43.1293L15.001 40.1651L14.5595 41.1111L13.5504 40.6066L14.9379 37.7054Z" fill="#FF6500"/>
<path opacity="0.5" d="M15.6948 36.3178L16.2624 35.3718L19.1635 37.1377L19.6681 36.3178L16.83 34.4889L17.3977 33.5428L24.0828 37.6422L23.5152 38.5883L20.6141 36.8224L20.1096 37.6422L23.0107 39.4081L22.4431 40.3541L15.6948 36.3178Z" fill="#FF6500"/>
<path opacity="0.5" d="M18.5328 31.9032L20.2987 29.5697L21.1817 30.2635L20.1095 31.714L21.9385 33.0384L22.8845 31.7771L23.7674 32.4708L22.8214 33.7322L24.6504 35.0566L25.7225 33.606L26.6055 34.2998L24.8396 36.6333L18.5328 31.9032Z" fill="#FF6500"/>
<path opacity="0.5" d="M30.3265 30.0742L29.2543 31.2094L25.0918 28.2453L22.8214 26.5424L23.6413 25.7226L28.4975 29.3805L24.7134 24.5873L25.5333 23.7675L27.2992 25.9748L30.3265 30.0742Z" fill="#FF6500"/>
<path opacity="0.5" d="M33.2275 25.4072C33.9213 26.2271 33.8582 27.047 33.0383 27.7407C32.2185 28.4345 31.4616 28.3714 30.7048 27.5515L27.6145 23.8936C26.9208 23.0737 26.9839 22.3169 27.8037 21.5601C28.6236 20.8663 29.3804 20.9294 30.1372 21.7493L33.2275 25.4072ZM29.2543 22.5061C29.002 22.2538 28.8128 22.1908 28.5605 22.443C28.3083 22.6322 28.3083 22.8845 28.5605 23.1368L31.6509 26.7947C31.9031 27.047 32.0923 27.11 32.3446 26.8578C32.5969 26.6686 32.5969 26.4163 32.4077 26.1009L29.2543 22.5061Z" fill="#FF6500"/>
<path opacity="0.5" d="M30.5156 19.5419L31.3985 18.8481L36.0656 25.1549L35.1826 25.8487L30.5156 19.5419Z" fill="#FF6500"/>
<path opacity="0.5" d="M38.9666 21.497C39.5342 22.443 39.4081 23.1998 38.4621 23.7674C37.5161 24.335 36.8223 24.1458 36.1917 23.2629L33.6059 19.2265C33.0382 18.2805 33.1644 17.5237 34.1104 16.9561C35.0564 16.3885 35.8132 16.5777 36.3808 17.4607L36.9485 18.3436L36.0025 18.9743L35.4348 18.0913C35.2456 17.776 34.9934 17.7129 34.7411 17.9021C34.4888 18.0913 34.4258 18.3436 34.615 18.5959L37.2007 22.6322C37.3899 22.9475 37.6422 23.0106 37.8945 22.8214C38.1468 22.6322 38.2098 22.3799 38.0206 22.1277L37.453 21.2447L38.399 20.614L38.9666 21.497Z" fill="#FF6500"/>
<path opacity="0.5" d="M37.1378 15.2533L39.7236 13.9288L40.2281 14.9379L38.6514 15.7578L39.6605 17.776L41.048 17.0822L41.5525 18.0913L40.1651 18.785L41.1741 20.8032L42.7508 19.9833L43.2554 20.9924L40.6696 22.3168L37.1378 15.2533Z" fill="#FF6500"/>
<path opacity="0.5" d="M41.8047 14.6226C41.3632 13.6135 41.6786 12.9198 42.6877 12.4783C43.6968 12.0368 44.3905 12.3522 44.832 13.3613L45.2104 14.3703L44.1382 14.8118L43.7598 13.8027C43.6337 13.4874 43.3814 13.3612 43.1292 13.4874C42.8138 13.6135 42.7507 13.8658 42.8769 14.1811L43.1292 14.8118C43.2553 15.1271 43.7598 15.3794 44.5797 15.6317C45.3996 15.8209 45.9672 16.2624 46.2195 16.893L46.5979 17.8391C47.0394 18.8481 46.724 19.6049 45.7149 19.9834C44.7058 20.3618 44.0121 20.1095 43.5706 19.0373L43.1922 18.0283L44.2644 17.5868L44.6428 18.5959C44.7689 18.9112 45.0212 19.0373 45.2734 18.9112C45.5888 18.7851 45.6519 18.5328 45.5257 18.2175L45.2104 17.3976C45.0843 17.0192 44.5797 16.7669 43.6968 16.5777C42.8769 16.3885 42.3093 15.947 41.994 15.2533L41.8047 14.6226Z" fill="#FF6500"/>
<path opacity="0.5" d="M52.8415 14.7488L53.8506 17.3346L52.7154 17.5868L52.0847 16.0101L50.9495 16.2624L51.1387 17.9022L50.0035 18.1544L49.6881 15.3795L49.2467 10.271L50.7603 9.89258L52.8415 14.7488ZM51.7063 15.0011L50.5081 11.9107L50.8864 15.1903L51.7063 15.0011Z" fill="#FF6500"/>
<path opacity="0.5" d="M53.5354 9.45108L54.6706 9.26187L56.4365 13.6135L55.7428 9.13574L56.7518 8.94653L57.9501 16.7039L56.8149 16.8931L55.1121 12.6675L55.8058 17.0192L54.7337 17.2084L53.5354 9.45108Z" fill="#FF6500"/>
<path opacity="0.5" d="M58.7069 8.75735L60.4728 8.63122C61.4819 8.56815 61.9864 9.07269 62.0495 10.2079L62.3017 14.7488C62.3648 15.8209 61.8603 16.4516 60.8512 16.5147L59.2114 16.6408L58.7069 8.75735ZM59.8421 9.8295L60.1575 15.4425H60.662C60.9773 15.4425 61.1665 15.2533 61.1035 14.8749L60.8512 10.334C60.8512 9.95564 60.662 9.8295 60.3467 9.8295H59.8421Z" fill="#FF6500"/>
<path opacity="0.5" d="M68.4823 14.1811L70.3113 8.94652L71.4465 9.07266L70.6897 16.893L69.6176 16.7669L70.059 12.3522L68.6715 16.6408L67.9147 16.5777L67.3471 12.0999L66.9057 16.5146L65.8335 16.3885L66.5903 8.56812L67.7255 8.69426L68.4823 14.1811Z" fill="#FF6500"/>
<path opacity="0.5" d="M73.4647 9.45105L76.3658 10.0817L76.1135 11.1539L74.3477 10.7755L73.9062 12.9828L75.4198 13.2982L75.1675 14.3703L73.6539 14.055L73.2124 16.2624L74.9783 16.6408L74.726 17.7129L71.825 17.0822L73.4647 9.45105Z" fill="#FF6500"/>
<path opacity="0.5" d="M77.438 11.9107C77.7533 10.8385 78.4471 10.4601 79.4561 10.7755C80.4652 11.0908 80.8436 11.7846 80.5283 12.8567L80.213 13.8658L79.1408 13.5505L79.4561 12.5414C79.5823 12.226 79.4561 11.9738 79.1408 11.9107C78.8255 11.8476 78.6363 11.9107 78.5101 12.2891L78.3209 12.9828C78.1948 13.2982 78.4471 13.8027 78.9516 14.4965C79.4562 15.1902 79.6454 15.884 79.4561 16.5146L79.1408 17.4606C78.8255 18.5328 78.1317 18.9112 77.1226 18.5959C76.1136 18.2805 75.7352 17.5868 76.0505 16.5146L76.3659 15.5055L77.438 15.8209L77.1226 16.83C76.9965 17.1453 77.1226 17.3976 77.438 17.4606C77.7533 17.5868 77.9425 17.4606 78.0687 17.0822L78.3209 16.1993C78.4471 15.8209 78.1948 15.3163 77.6903 14.6226C77.1857 13.9289 76.9965 13.2351 77.1857 12.5414L77.438 11.9107Z" fill="#FF6500"/>
<path opacity="0.5" d="M82.1049 13.4243C82.5464 12.4152 83.2401 12.0999 84.2492 12.4783C85.2583 12.8567 85.5736 13.6135 85.1321 14.6226L84.7538 15.6317L83.6816 15.1902L84.06 14.1811C84.1861 13.8658 84.1231 13.6135 83.8077 13.4874C83.4924 13.3612 83.3032 13.4874 83.1771 13.8027L82.9248 14.4334C82.7986 14.7487 82.9878 15.3163 83.4293 16.0101C83.8708 16.7669 83.9969 17.4606 83.7447 18.0913L83.3663 19.0373C82.9248 20.0464 82.231 20.3617 81.222 19.9833C80.2129 19.5419 79.8976 18.8481 80.339 17.839L80.7174 16.8299L81.7896 17.2714L81.4112 18.2805C81.2851 18.5958 81.3481 18.8481 81.6634 18.9742C81.9788 19.1004 82.168 18.9742 82.2941 18.6589L82.6094 17.839C82.7356 17.4606 82.6095 16.9561 82.1049 16.1993C81.6634 15.4425 81.5373 14.7487 81.7896 14.118L82.1049 13.4243Z" fill="#FF6500"/>
<path opacity="0.5" d="M87.8441 19.9204L86.8981 22.5692L85.889 22.0647L86.4566 20.488L85.4475 19.9834L84.5015 21.3709L83.4924 20.8664L85.0691 18.5959L88.0964 14.4335L89.4839 15.1272L87.8441 19.9204ZM86.835 19.4158L87.9702 16.3255L86.0782 19.0374L86.835 19.4158Z" fill="#FF6500"/>
<path opacity="0.5" d="M91.1235 23.4521C90.5559 24.3981 89.7991 24.5242 88.8531 23.9566C87.9702 23.389 87.781 22.6322 88.3486 21.6862L90.9343 17.6498C91.5019 16.7038 92.2587 16.5777 93.2047 17.1453C94.0877 17.7129 94.2769 18.4697 93.7093 19.4157L93.1417 20.2987L92.1957 19.668L92.7633 18.7851C92.9525 18.4697 92.8894 18.2805 92.6372 18.0913C92.3849 17.9021 92.1326 17.9652 91.9434 18.2805L89.3576 22.3168C89.1684 22.6322 89.2315 22.8844 89.4838 23.0106C89.736 23.1998 89.9883 23.1367 90.1775 22.8214L91.1866 21.2447L90.7451 20.9924L91.3758 20.0464L92.7633 20.9294L91.1235 23.4521Z" fill="#FF6500"/>
<path opacity="0.5" d="M96.0428 19.2266L98.3763 21.0555L97.6826 21.9385L96.232 20.8033L94.8446 22.5691L96.0428 23.5152L95.3491 24.3981L94.1508 23.4521L92.7633 25.218L94.2139 26.3532L93.5201 27.2361L91.1866 25.4072L96.0428 19.2266Z" fill="#FF6500"/>
<path opacity="0.5" d="M98.5656 23.1368C99.3224 22.3169 100.079 22.3169 100.899 23.0107C101.719 23.7675 101.719 24.5243 100.962 25.3442L100.268 26.101L99.4486 25.3442L100.142 24.5873C100.395 24.3351 100.395 24.0828 100.142 23.8936C99.89 23.6413 99.6378 23.7044 99.4486 23.9567L98.944 24.4612C98.6917 24.7135 98.6917 25.2811 98.8809 26.101C99.0701 26.9208 98.881 27.6146 98.4395 28.1822L97.7457 28.939C96.9889 29.7589 96.2321 29.7589 95.4122 29.0651C94.5923 28.3083 94.5923 27.5515 95.3492 26.7316L96.0429 25.9748L96.8628 26.7316L96.169 27.4884C95.9168 27.7407 95.9168 27.993 96.169 28.2453C96.4213 28.4975 96.6736 28.4345 96.8628 28.1822L97.4935 27.5515C97.7457 27.2993 97.8088 26.7316 97.6196 25.8487C97.4304 25.0288 97.6196 24.3351 98.0611 23.7675L98.5656 23.1368Z" fill="#FF6500"/>
<path opacity="0.5" d="M106.89 29.7588L106.008 30.4525L105.314 29.6327L100.142 33.9213L99.4485 33.0383L104.62 28.7497L103.926 27.9298L104.809 27.2361L106.89 29.7588Z" fill="#FF6500"/>
<path opacity="0.5" d="M107.837 31.0201L108.467 31.9662L105.692 33.8582L106.26 34.6781L109.035 32.786L109.666 33.732L103.17 38.2098L102.539 37.2638L105.314 35.3718L104.746 34.5519L101.971 36.444L101.341 35.4979L107.837 31.0201Z" fill="#FF6500"/>
<path opacity="0.5" d="M107.837 40.6065L105.566 42.3093L104.998 41.3002L106.323 40.2911L105.755 39.282L104.179 39.9127L103.611 38.9036L106.197 37.8945L111.053 36.1287L111.81 37.5161L107.837 40.6065ZM107.269 39.5974L109.918 37.6423L106.827 38.8406L107.269 39.5974Z" fill="#FF6500"/>
<path opacity="0.5" d="M114.269 42.3723L113.26 42.8138L112.819 41.8678L106.701 44.6427L106.26 43.6337L112.377 40.8587L111.936 39.9127L112.945 39.4712L114.269 42.3723Z" fill="#FF6500"/>
<path opacity="0.5" d="M115.72 46.3457L116.225 48.0485C116.477 48.9945 116.098 49.6252 115.089 49.9406L113.954 50.2559C113.45 50.382 113.071 50.319 112.756 49.9406C112.693 50.382 112.377 50.6974 111.873 50.8235L110.738 51.1388C109.666 51.4542 109.035 51.0758 108.719 50.0667L108.215 48.49L115.72 46.3457ZM111.747 48.7423L109.602 49.373L109.729 49.8775C109.792 50.1928 110.044 50.319 110.359 50.1928L111.494 49.8775C111.747 49.8144 111.873 49.6883 111.873 49.436C111.873 49.373 111.873 49.2468 111.81 49.1207L111.747 48.7423ZM114.963 47.7963L112.819 48.4269L112.945 48.7423C113.008 48.8684 113.008 48.9946 113.071 49.0576C113.197 49.2468 113.386 49.3099 113.639 49.1837L114.774 48.8684C115.089 48.7423 115.215 48.5531 115.152 48.2377L114.963 47.7963Z" fill="#FF6500"/>
<path opacity="0.5" d="M117.107 51.2649L117.423 52.9047C117.612 53.9137 117.171 54.4813 116.098 54.7336L114.963 54.9859C114.269 55.112 113.765 54.9228 113.45 54.3552L110.107 56.3103L109.855 55.112L113.071 53.4092L113.008 53.283L109.666 53.9768L109.476 52.8416L117.107 51.2649ZM116.225 52.5893L114.017 53.0308L114.08 53.283C114.08 53.4092 114.143 53.5353 114.143 53.5984C114.269 53.7876 114.459 53.8507 114.711 53.7876L115.846 53.5353C116.225 53.4723 116.351 53.283 116.288 52.9677L116.225 52.5893Z" fill="#FF6500"/>
<path opacity="0.5" d="M111.999 60.0314C110.927 60.1575 110.296 59.653 110.17 58.5808C110.044 57.5087 110.548 56.878 111.621 56.8149L116.414 56.3104C117.486 56.1842 118.117 56.6888 118.243 57.7609C118.369 58.8331 117.864 59.4638 116.792 59.5268L111.999 60.0314ZM116.666 58.4547C117.044 58.3916 117.17 58.2655 117.17 57.8871C117.107 57.5717 116.918 57.4456 116.603 57.4456L111.81 57.9501C111.431 58.0132 111.305 58.1393 111.305 58.5177C111.368 58.8331 111.557 59.0223 111.873 58.9592L116.666 58.4547Z" fill="#FF6500"/>
<path opacity="0.5" d="M112.125 64.5722C111.053 64.5722 110.485 64.0677 110.422 62.9955C110.422 61.9234 110.927 61.3558 112.062 61.3558L118.369 61.2296V62.3648L112.062 62.491C111.684 62.491 111.558 62.6802 111.558 62.9955C111.558 63.3109 111.747 63.5001 112.125 63.5001L118.432 63.3739V64.5091L112.125 64.5722Z" fill="#FF6500"/>
<path opacity="0.5" d="M111.81 69.0499C110.738 68.9868 110.233 68.3562 110.296 67.284C110.359 66.2119 110.99 65.7073 112.062 65.7704L116.855 66.1488C117.927 66.2119 118.432 66.8425 118.369 67.9147C118.306 68.9868 117.675 69.4914 116.603 69.4283L115.531 69.3652L115.594 68.23L116.666 68.2931C117.044 68.2931 117.234 68.167 117.234 67.8516C117.234 67.5363 117.107 67.3471 116.729 67.3471L111.936 66.9687C111.557 66.9687 111.368 67.0948 111.368 67.4102C111.368 67.7255 111.494 67.9147 111.873 67.9778L113.702 68.1039L113.765 67.5993L114.9 67.6624L114.774 69.3022L111.81 69.0499Z" fill="#FF6500"/>
<path opacity="0.5" d="M117.927 71.3835L117.738 72.5187L114.396 71.9511L114.206 72.8971L117.549 73.4647L117.36 74.6L109.602 73.2755L109.792 72.1403L113.134 72.7079L113.323 71.7619L109.981 71.1943L110.17 70.0591L117.927 71.3835Z" fill="#FF6500"/>
<path opacity="0.5" d="M116.161 79.267L115.089 78.9516L115.342 77.9425L108.846 76.1766L109.161 75.1045L115.657 76.8704L115.909 75.8613L116.981 76.1766L116.161 79.267Z" fill="#FF6500"/>
<path opacity="0.5" d="M107.71 83.8078C106.701 83.3663 106.386 82.6726 106.827 81.6635C107.269 80.6544 107.963 80.4021 108.972 80.7805L114.837 83.2402L114.396 84.3123L108.53 81.8527C108.215 81.7266 107.963 81.7896 107.837 82.105C107.71 82.4203 107.837 82.6095 108.152 82.7987L114.017 85.2584L113.576 86.3305L107.71 83.8078Z" fill="#FF6500"/>
<path opacity="0.5" d="M111.431 87.1504C112.377 87.655 112.63 88.4118 112.125 89.3578C111.621 90.3038 110.864 90.5561 109.918 89.9885L108.972 89.484L109.476 88.4749L110.422 88.9794C110.738 89.1686 110.99 89.1055 111.116 88.7902C111.242 88.4749 111.179 88.2857 110.864 88.0965L110.233 87.7811C109.918 87.5919 109.35 87.7181 108.593 88.0965C107.837 88.4749 107.143 88.5379 106.512 88.1595L105.629 87.7181C104.683 87.2135 104.431 86.4567 104.935 85.5107C105.44 84.5647 106.197 84.3124 107.143 84.88L108.089 85.3846L107.584 86.3936L106.638 85.8891C106.323 85.6999 106.071 85.763 105.945 86.0783C105.818 86.3936 105.881 86.5828 106.197 86.772L107.017 87.2135C107.332 87.4027 107.9 87.2766 108.72 86.8982C109.476 86.5198 110.233 86.4567 110.864 86.8351L111.431 87.1504Z" fill="#FF6500"/>
<path opacity="0.5" d="M108.846 94.5923L108.152 95.5383L105.44 93.5833L104.872 94.4031L107.584 96.3582L106.891 97.3042L100.521 92.7003L101.214 91.7543L103.926 93.7094L104.494 92.8895L101.782 90.9344L102.476 89.9884L108.846 94.5923Z" fill="#FF6500"/>
<path opacity="0.5" d="M105.755 98.6917L103.8 100.899L102.98 100.142L104.179 98.7548L102.476 97.2412L101.467 98.4395L100.647 97.6827L101.656 96.4844L99.9531 94.9707L98.7548 96.3582L97.9349 95.6014L99.8901 93.394L105.755 98.6917Z" fill="#FF6500"/>
<path opacity="0.5" d="M102.602 102.16L101.404 103.296C100.647 103.989 99.953 103.926 99.1962 103.17L98.3763 102.287C97.8718 101.782 97.8087 101.278 98.061 100.71L94.5923 98.944L95.4752 98.0611L98.6286 99.827L98.6917 99.7008L96.2951 97.2412L97.115 96.4844L102.602 102.16ZM101.025 102.097L99.4485 100.458L99.2593 100.647C99.1332 100.773 99.0701 100.836 99.0701 100.899C99.007 101.088 99.007 101.278 99.1962 101.467L100.016 102.35C100.268 102.602 100.521 102.602 100.773 102.413L101.025 102.097Z" fill="#FF6500"/>
<path opacity="0.5" d="M98.8809 105.566L96.6105 107.395L95.9168 106.512L97.3042 105.377L95.9168 103.611L94.7185 104.557L94.0247 103.674L95.223 102.728L93.8355 100.962L92.448 102.097L91.7543 101.214L94.0247 99.3855L98.8809 105.566Z" fill="#FF6500"/>
<path d="M60.0313 83.1772C60.0943 85.7629 61.2295 87.0243 63.5 87.0243C65.7073 87.0243 66.8426 85.7629 66.9056 83.1772V71.825C66.9056 69.6807 66.5272 68.4193 65.8335 68.104C65.4551 67.9148 64.6983 67.8517 63.7523 67.8517H59.6529V57.0041H64.509C65.2028 57.0041 65.7704 56.941 66.0857 56.7518C66.6533 56.4365 66.9687 55.2382 66.9687 53.22V42.4355C66.9056 39.8497 65.7704 38.5884 63.563 38.5884C61.2926 38.5884 60.1574 39.8497 60.0943 42.4355V52.0217H48.8683V42.4355C48.8683 32.66 53.7876 27.7407 63.563 27.7407C73.3385 27.7407 78.1947 32.66 78.1947 42.4355V53.2831C78.1947 57.887 76.6811 60.9774 73.6539 62.554C76.6811 64.1307 78.1947 67.2211 78.1947 71.825V83.1772C78.1947 92.9527 73.3385 97.8719 63.563 97.8719C53.7876 97.8719 48.8683 92.9527 48.8683 83.1772V73.5909H60.0943V83.1772H60.0313Z" fill="#FF6500"/>
<path d="M45.9041 106.701C46.4717 105.125 47.5439 104.557 49.1206 105.125C50.6972 105.692 51.2649 106.764 50.6972 108.341L50.1296 109.918L48.3007 109.287L48.8683 107.71C48.9944 107.269 48.9313 107.017 48.5529 106.891C48.1745 106.764 47.9222 106.891 47.7961 107.332L47.4808 108.341C47.3546 108.783 47.6069 109.539 48.3007 110.548C49.0575 111.621 49.2467 112.63 48.9314 113.639L48.4268 115.026C47.8592 116.603 46.787 117.171 45.2104 116.603C43.6337 116.035 43.1291 114.963 43.6337 113.387L44.2013 111.81L46.0302 112.44L45.4626 114.017C45.3365 114.459 45.3996 114.711 45.778 114.837C46.1564 114.963 46.4086 114.837 46.5348 114.396L46.9762 113.134C47.1654 112.63 46.8501 111.873 46.1564 110.864C45.3996 109.792 45.2104 108.72 45.5257 107.71L45.9041 106.701Z" fill="#FF6500"/>
<path d="M57.6977 107.458L57.3193 109.287L55.8057 108.972L53.9767 118.621L52.0847 118.243L53.9137 108.593L52.4001 108.278L52.7784 106.449L57.6977 107.458Z" fill="#FF6500"/>
<path d="M59.2114 107.584L63.8153 107.773L63.7523 109.665L61.1034 109.539L60.9773 112.567L63.2477 112.693L63.1846 114.585L60.9142 114.459L60.7881 117.486L63.4369 117.612L63.3738 119.504L58.7699 119.252L59.2114 107.584Z" fill="#FF6500"/>
<path d="M65.3921 107.773L67.9148 107.521C69.4915 107.395 70.3114 108.152 70.5006 109.855L70.6898 111.558C70.8159 112.819 70.3114 113.639 69.2392 114.08C68.9869 114.206 68.6085 114.269 68.104 114.332H67.9778L68.4193 119.252L66.4642 119.441L65.3921 107.773ZM67.4733 109.413L67.7887 112.44H68.0409C68.2301 112.44 68.3563 112.377 68.4193 112.377C68.6716 112.251 68.7347 112.062 68.7347 111.747L68.5455 110.044C68.4824 109.602 68.2932 109.413 67.9148 109.413H67.4733Z" fill="#FF6500"/>
<path d="M80.3391 114.396C80.4652 114.837 80.7806 114.963 81.0959 114.837C81.4743 114.711 81.6004 114.459 81.4112 114.017L80.7806 112.188C80.6544 111.81 80.5283 111.684 80.4021 111.621C80.3391 111.621 80.2129 111.621 80.0237 111.684L79.33 111.936L78.6993 110.17L79.5192 109.918C79.6453 109.855 79.7084 109.855 79.7715 109.792C79.8345 109.729 79.8345 109.476 79.7084 109.161L79.0777 107.395C78.9516 106.954 78.6363 106.827 78.3209 106.954C77.9425 107.08 77.8164 107.332 77.9425 107.773L78.5101 109.35L76.6812 109.981L76.1135 108.404C75.5459 106.827 76.1135 105.755 77.6902 105.188C79.2669 104.62 80.3391 105.188 80.9067 106.764L81.5373 108.53C81.7896 109.287 81.7266 109.855 81.2851 110.296C81.8527 110.359 82.2942 110.801 82.5464 111.557L83.1771 113.386C83.7447 114.963 83.1771 116.035 81.6004 116.603C80.0237 117.17 78.9516 116.603 78.384 115.026L77.8164 113.45L79.6453 112.819L80.3391 114.396Z" fill="#FF6500"/>
</svg>
