<svg width="127" height="127" viewBox="0 0 127 127" fill="none" xmlns="http://www.w3.org/2000/svg">
<path d="M63.5 126C98.0178 126 126 98.0178 126 63.5C126 28.9822 98.0178 1 63.5 1C28.9822 1 1 28.9822 1 63.5C1 98.0178 28.9822 126 63.5 126Z" fill="white" stroke="#FF6500" stroke-width="0.5"/>
<path opacity="0.5" d="M35.2492 101.212L30.3673 107.362L29.4779 106.655L33.666 101.376L32.2532 100.253L32.947 99.3765L35.2492 101.212Z" fill="#FF6500"/>
<path opacity="0.5" d="M26.917 104.536L24.7725 102.524L25.5357 101.71L26.8539 102.946L28.3929 101.307L27.2576 100.247L28.0271 99.4269L29.1624 100.487L30.7014 98.8467L29.3832 97.6104L30.1464 96.7968L32.2909 98.8088L26.917 104.536Z" fill="#FF6500"/>
<path opacity="0.5" d="M21.6504 99.1557L22.4767 98.4051L23.1894 99.1936L28.1849 94.6711L28.9481 95.51L23.9526 100.032L24.6653 100.821L23.8391 101.571L21.6504 99.1557Z" fill="#FF6500"/>
<path opacity="0.5" d="M20.7168 98.0078L19.8527 96.904L20.7609 96.1913L22.1738 95.6299L22.6279 96.2102L21.4547 96.8346L21.7449 97.2004L20.7168 98.0078Z" fill="#FF6500"/>
<path opacity="0.5" d="M20.0672 94.6648C19.1527 95.2767 18.3958 95.1379 17.7903 94.2359C17.1848 93.334 17.3361 92.5771 18.2507 91.9653L19.1274 91.3724L19.7582 92.3122L18.8815 92.9051C18.5913 93.1006 18.5345 93.3403 18.7175 93.6115L18.7238 93.6178C18.9067 93.889 19.1464 93.9269 19.4365 93.725L20.0294 93.3277C20.3195 93.1321 20.4772 92.6023 20.5025 91.7319C20.5277 90.8615 20.8304 90.2307 21.417 89.8397L22.2433 89.2846C23.1579 88.6665 23.9148 88.8116 24.5203 89.7072C25.1258 90.6092 24.9681 91.3661 24.0598 91.9842L23.1831 92.5771L22.5524 91.6373L23.4291 91.0444C23.7255 90.8489 23.776 90.6092 23.5931 90.338C23.4102 90.0668 23.1705 90.0289 22.874 90.2245L22.1298 90.7227C21.8144 90.9372 21.6441 91.4733 21.6189 92.3437C21.5936 93.2141 21.2846 93.8512 20.6854 94.2549L20.0672 94.6648Z" fill="#FF6500"/>
<path opacity="0.5" d="M14.7375 88.9125L14.0121 87.4303C13.5706 86.522 13.8481 85.8282 14.8384 85.3489L15.898 84.8316C16.6297 84.4784 17.2541 84.573 17.7839 85.1155C17.9101 85.2479 18.0488 85.4624 18.1939 85.7588L18.2759 85.9228L21.3035 84.4469L21.8017 85.4624L14.7375 88.9125ZM15.2484 87.4051L17.273 86.4148L17.1595 86.1814C17.0901 86.0427 17.0334 85.9481 16.9892 85.9039C16.8252 85.7525 16.6297 85.7336 16.4026 85.8471L15.343 86.3644C15.0213 86.522 14.933 86.7491 15.0781 87.0455L15.2484 87.4051Z" fill="#FF6500"/>
<path opacity="0.5" d="M12.6877 84.51L11.6344 81.7663L12.6751 81.3626L13.3248 83.0467L15.4251 82.2393L14.8701 80.7886L15.9171 80.385L16.4722 81.8356L18.5725 81.0283L17.9229 79.3442L18.9636 78.9406L20.0169 81.6843L12.6877 84.51Z" fill="#FF6500"/>
<path opacity="0.5" d="M11.0855 80.1389L10.6314 78.5557C10.3602 77.5844 10.7512 76.9536 11.8046 76.6509L12.9399 76.3292C13.6022 76.14 14.1257 76.2977 14.4978 76.8149L17.6641 74.5884L18.0047 75.7805L14.9646 77.7106L15.0213 77.843L18.3264 76.8969L18.6355 77.9881L11.0855 80.1389ZM11.8487 78.7386L14.0122 78.1205L13.9428 77.8682C13.8986 77.7169 13.8608 77.6159 13.8229 77.5655C13.6905 77.3889 13.5012 77.3384 13.2553 77.4078L12.1199 77.7295C11.7793 77.8304 11.6469 78.0322 11.7415 78.3476L11.8487 78.7386Z" fill="#FF6500"/>
<path opacity="0.5" d="M9.78634 75.2507L9.47728 73.6297C9.29437 72.6394 9.7422 72.0465 10.8208 71.8384L11.9813 71.6176C12.7761 71.4662 13.3626 71.7248 13.7285 72.3934C13.8168 72.5511 13.8925 72.7971 13.9492 73.1188L13.9808 73.3017L17.2858 72.6709L17.494 73.781L9.78634 75.2507ZM10.6694 73.9324L12.877 73.5098L12.8265 73.2512C12.795 73.0935 12.7697 72.9926 12.7319 72.9358C12.6121 72.7466 12.4292 72.6772 12.1832 72.7277L11.0226 72.9485C10.6694 73.0178 10.5243 73.2071 10.5874 73.535L10.6694 73.9324Z" fill="#FF6500"/>
<path opacity="0.5" d="M8.96625 70.4697L8.6698 67.5494L9.77991 67.4358L9.96281 69.2335L12.2019 69.0064L12.0443 67.4611L13.1607 67.3475L13.3183 68.8929L15.5575 68.6658L15.3746 66.8682L16.4847 66.7546L16.7811 69.675L8.96625 70.4697Z" fill="#FF6500"/>
<path opacity="0.5" d="M8.51843 62.9387L9.63483 62.9198L9.65376 63.9794L16.3901 63.8533L16.409 64.9886L9.67268 65.1148L9.6916 66.1744L8.5752 66.1933L8.51843 62.9387Z" fill="#FF6500"/>
<path opacity="0.5" d="M15.0906 58.5802C16.1881 58.6559 16.699 59.2299 16.6296 60.3148C16.5539 61.3933 15.9736 61.8979 14.8698 61.8285L8.55615 61.4059L8.63184 60.2769L14.9455 60.6995C15.2988 60.7248 15.488 60.5734 15.5069 60.2454C15.5321 59.9174 15.3618 59.7408 15.0086 59.7156L8.69492 59.293L8.7706 58.1639L15.0906 58.5802Z" fill="#FF6500"/>
<path opacity="0.5" d="M14.4979 53.9633L17.311 54.039L17.1281 55.168L15.4503 55.1238L15.2674 56.2655L16.8758 56.7511L16.6929 57.8802L14.0123 57.0728L9.12402 55.477L9.37002 53.9443L14.4979 53.9633ZM14.315 55.0923L11.0226 54.9977L14.1763 55.9438L14.315 55.0923Z" fill="#FF6500"/>
<path opacity="0.5" d="M10.5746 48.5579L11.6595 48.8291L11.4009 49.8572L17.9354 51.4908L17.6578 52.5883L11.1234 50.9547L10.8648 51.9828L9.77991 51.7116L10.5746 48.5579Z" fill="#FF6500"/>
<path opacity="0.5" d="M11.0223 47.0693L11.9684 44.2877L13.0281 44.6472L12.4478 46.3565L14.5797 47.0819L15.078 45.6123L16.1376 45.9718L15.6393 47.4414L17.7712 48.1668L18.3515 46.4575L19.4112 46.817L18.4651 49.5986L11.0223 47.0693Z" fill="#FF6500"/>
<path opacity="0.5" d="M14.952 37.6649L15.9549 38.1632L15.4819 39.1156L21.518 42.1053L21.0135 43.1208L14.9773 40.1311L14.5042 41.0835L13.5013 40.5852L14.952 37.6649Z" fill="#FF6500"/>
<path opacity="0.5" d="M15.7216 36.2773L16.3145 35.3123L19.1906 37.0658L19.7078 36.2206L16.8317 34.4671L17.4246 33.5021L24.1293 37.5956L23.5364 38.5606L20.6603 36.8072L20.143 37.6523L23.0192 39.4058L22.4263 40.3708L15.7216 36.2773Z" fill="#FF6500"/>
<path opacity="0.5" d="M18.5031 31.9125L20.2502 29.5536L21.1459 30.2159L20.0736 31.6666L21.8838 33.0037L22.811 31.7549L23.713 32.4234L22.7858 33.6723L24.596 35.0095L25.6683 33.5588L26.5639 34.2211L24.8168 36.58L18.5031 31.9125Z" fill="#FF6500"/>
<path opacity="0.5" d="M30.3546 30.0204L29.2697 31.1305L25.0816 28.1534L22.8362 26.4756L23.6372 25.6556L28.5255 29.3139L24.7536 24.5077L25.5547 23.6877L27.2892 25.8953L30.3546 30.0204Z" fill="#FF6500"/>
<path opacity="0.5" d="M33.2182 25.4097C33.9309 26.2486 33.8742 27.0181 33.0479 27.7245C32.2216 28.4247 31.4521 28.3616 30.7394 27.5227L27.6235 23.8644C26.9108 23.0255 26.9676 22.256 27.7938 21.5559C28.6201 20.8495 29.3896 20.9189 30.1024 21.7578L33.2182 25.4097ZM29.2382 22.4894C29.0112 22.2182 28.7715 22.193 28.5192 22.4011L28.5129 22.4074C28.2669 22.6156 28.2543 22.8615 28.4877 23.1328L31.6035 26.7911C31.8369 27.0623 32.0766 27.0875 32.3226 26.8794C32.5748 26.6649 32.5875 26.4252 32.3541 26.154L29.2382 22.4894Z" fill="#FF6500"/>
<path opacity="0.5" d="M30.5187 19.5249L31.4332 18.8563L36.0881 25.1889L35.1735 25.8575L30.5187 19.5249Z" fill="#FF6500"/>
<path opacity="0.5" d="M38.9768 21.4675C39.5634 22.3947 39.3994 23.1515 38.4785 23.7381C37.564 24.3184 36.8071 24.1418 36.2205 23.2083L33.6534 19.1464C33.0668 18.2192 33.2308 17.4623 34.1454 16.882C35.0662 16.3017 35.8168 16.4783 36.4034 17.4055L36.9648 18.3012L36.006 18.9067L35.4447 18.011C35.2555 17.7146 35.0221 17.6515 34.7446 17.8218L34.7382 17.8281C34.4607 18.0047 34.4229 18.2381 34.6121 18.5408L37.1792 22.6028C37.3684 22.9056 37.6018 22.9686 37.8793 22.792C38.1569 22.6154 38.2073 22.3757 38.0118 22.0793L37.4504 21.1836L38.4092 20.5781L38.9768 21.4675Z" fill="#FF6500"/>
<path opacity="0.5" d="M37.1477 15.2422L39.759 13.8987L40.2699 14.8889L38.6678 15.7152L39.6959 17.7147L41.0772 17.0019L41.5881 17.9985L40.2068 18.7112L41.2349 20.7107L42.837 19.8844L43.3479 20.8747L40.7366 22.2181L37.1477 15.2422Z" fill="#FF6500"/>
<path opacity="0.5" d="M41.8341 14.6177C41.4178 13.6022 41.7143 12.8831 42.7172 12.4795C43.72 12.0695 44.4328 12.3722 44.8491 13.394L45.2464 14.3717L44.1994 14.8006L43.802 13.8229C43.6696 13.495 43.4488 13.394 43.1461 13.5139H43.1398C42.837 13.6337 42.755 13.8608 42.8875 14.1888L43.1587 14.851C43.2911 15.1727 43.7768 15.4376 44.6283 15.6395C45.4735 15.8413 46.0285 16.2639 46.2935 16.9199L46.6656 17.8407C47.0819 18.8625 46.7854 19.5753 45.7826 19.9853C44.7734 20.3952 44.0669 20.0862 43.6507 19.0707L43.2533 18.093L44.3003 17.6641L44.6977 18.6418C44.8301 18.9698 45.0509 19.0707 45.36 18.9508C45.6627 18.8247 45.751 18.5976 45.6123 18.2697L45.2717 17.4371C45.1266 17.0839 44.6346 16.8063 43.7894 16.6045C42.9442 16.4027 42.3829 15.9674 42.1116 15.2989L41.8341 14.6177Z" fill="#FF6500"/>
<path opacity="0.5" d="M52.8405 14.725L53.875 17.3362L52.7648 17.6138L52.1467 16.0495L51.024 16.3334L51.2132 18.0048L50.1094 18.2823L49.7941 15.5008L49.3336 10.3792L50.8411 10.0007L52.8405 14.725ZM51.7304 15.0025L50.5131 11.9371L50.8915 15.2106L51.7304 15.0025Z" fill="#FF6500"/>
<path opacity="0.5" d="M53.5344 9.42044L54.6571 9.25015L56.4043 13.5896L55.7168 9.08615L56.7512 8.92847L57.937 16.6929L56.8143 16.8632L55.1239 12.6561L55.7925 17.0209L54.7139 17.1849L53.5344 9.42044Z" fill="#FF6500"/>
<path opacity="0.5" d="M58.6748 8.72655L60.4157 8.62563C61.4185 8.56886 61.9546 9.09237 62.0177 10.1899L62.2826 14.7375C62.3457 15.835 61.8537 16.4153 60.8004 16.4783L59.1289 16.5729L58.6748 8.72655ZM59.8732 9.77358L60.2012 15.3872L60.6995 15.3556C61.0275 15.3367 61.1788 15.1475 61.1599 14.7943L60.895 10.2466C60.8761 9.88711 60.6995 9.72312 60.3715 9.74204L59.8732 9.77358Z" fill="#FF6500"/>
<path opacity="0.5" d="M68.4766 14.1699L70.3183 8.94733L71.4474 9.06087L70.6716 16.8757L69.593 16.7685L70.0282 12.3849L68.628 16.6739L67.8648 16.5982L67.3097 12.1136L66.8745 16.4973L65.7833 16.3901L66.5591 8.5752L67.6882 8.68873L68.4766 14.1699Z" fill="#FF6500"/>
<path opacity="0.5" d="M73.4342 9.42041L76.3104 10.0196L76.0833 11.1108L74.3172 10.745L73.8568 12.9463L75.3769 13.2616L75.1498 14.3591L73.6297 14.0437L73.1693 16.245L74.9354 16.6109L74.7083 17.702L71.8322 17.1028L73.4342 9.42041Z" fill="#FF6500"/>
<path opacity="0.5" d="M77.4583 11.8803C77.7799 10.8269 78.4548 10.4611 79.4893 10.7702C80.53 11.0856 80.8895 11.7668 80.5678 12.8201L80.2588 13.8293L79.1739 13.5013L79.4829 12.4921C79.5839 12.1578 79.4766 11.9371 79.1676 11.8424H79.1613C78.8522 11.7478 78.6441 11.8677 78.5368 12.2083L78.3287 12.8895C78.2278 13.2238 78.4422 13.7347 78.972 14.4285C79.5019 15.116 79.6659 15.7972 79.464 16.4721L79.1739 17.4245C78.8522 18.4778 78.1773 18.85 77.1366 18.5346C76.0959 18.2192 75.7363 17.5317 76.058 16.4784L76.3671 15.4692L77.452 15.7972L77.1429 16.8064C77.042 17.147 77.1492 17.3614 77.4646 17.4623C77.7799 17.5569 77.9881 17.4371 78.089 17.0965L78.3476 16.2387C78.4548 15.8729 78.2467 15.3494 77.7169 14.6618C77.187 13.9743 77.0231 13.2868 77.2375 12.593L77.4583 11.8803Z" fill="#FF6500"/>
<path opacity="0.5" d="M82.1131 13.3752C82.5294 12.3597 83.2358 12.0507 84.2387 12.4606C85.2479 12.8706 85.538 13.5834 85.1281 14.6052L84.7307 15.5828L83.6837 15.1539L84.081 14.1763C84.2135 13.8483 84.1315 13.6212 83.8224 13.4951H83.8161C83.5134 13.3752 83.2989 13.4761 83.1601 13.8041L82.8889 14.4664C82.7565 14.7881 82.9205 15.3179 83.3872 16.0559C83.854 16.7875 83.9549 17.4813 83.6837 18.1373L83.3115 19.0582C82.8952 20.08 82.1888 20.3827 81.1796 19.9791C80.1767 19.5691 79.8803 18.85 80.2903 17.8346L80.6876 16.8569L81.7347 17.2858L81.3373 18.2635C81.2048 18.5914 81.2868 18.8185 81.5959 18.9447C81.8987 19.0708 82.1194 18.9636 82.2519 18.6356L82.5925 17.803C82.7376 17.4498 82.5736 16.9074 82.1131 16.1694C81.6464 15.4377 81.5518 14.7313 81.823 14.0627L82.1131 13.3752Z" fill="#FF6500"/>
<path opacity="0.5" d="M87.8465 19.9159L86.8878 22.5587L85.8723 22.0289L86.4462 20.452L85.4181 19.9222L84.4531 21.2972L83.4376 20.7737L85.0397 18.4778L88.0925 14.3339L89.4738 15.0466L87.8465 19.9159ZM86.831 19.3861L87.9537 16.2892L86.0678 18.9887L86.831 19.3861Z" fill="#FF6500"/>
<path opacity="0.5" d="M91.1076 23.4292C90.5147 24.3564 89.7578 24.5267 88.8432 23.9401C87.9287 23.3535 87.771 22.5966 88.3702 21.6694L90.9688 17.6264C91.5617 16.6992 92.3186 16.5289 93.2269 17.1155C94.1414 17.7021 94.2991 18.459 93.7062 19.3861L93.1323 20.2755L92.1798 19.6637L92.7538 18.7743C92.943 18.4779 92.9052 18.2382 92.6277 18.0616L92.6214 18.0553C92.3501 17.8787 92.1168 17.9418 91.9212 18.2382L89.3226 22.2812C89.1334 22.5777 89.1712 22.8174 89.4487 22.994C89.7263 23.1706 89.9596 23.1138 90.1552 22.8111L91.1517 21.2594L90.7355 20.9945L91.341 20.0484L92.7096 20.9252L91.1076 23.4292Z" fill="#FF6500"/>
<path opacity="0.5" d="M96.0272 19.1716L98.3483 20.9692L97.6671 21.8523L96.2417 20.7485L94.8667 22.5272L96.0966 23.4796L95.4091 24.3689L94.1792 23.4165L92.8041 25.1952L94.2296 26.299L93.5484 27.182L91.2273 25.3844L96.0272 19.1716Z" fill="#FF6500"/>
<path opacity="0.5" d="M98.5565 23.139C99.3008 22.3317 100.077 22.2938 100.871 23.0318C101.666 23.7698 101.698 24.5393 100.947 25.3466L100.228 26.1224L99.3954 25.3529L100.114 24.5771C100.354 24.3185 100.354 24.0788 100.114 23.8518L100.108 23.8455C99.8685 23.6247 99.6288 23.6436 99.3891 23.9022L98.9034 24.4257C98.6637 24.6843 98.6385 25.2394 98.8088 26.0909C98.9854 26.9424 98.8341 27.6236 98.3547 28.1408L97.6798 28.8725C96.9292 29.6798 96.1597 29.7176 95.365 28.986C94.5703 28.248 94.545 27.4722 95.2893 26.6649L96.0083 25.889L96.8409 26.6585L96.1219 27.4344C95.8822 27.693 95.8822 27.939 96.1219 28.1597C96.3615 28.3805 96.6012 28.3616 96.8472 28.103L97.4527 27.447C97.7113 27.1694 97.7492 26.6018 97.5789 25.7503C97.4023 24.8988 97.5599 24.2113 98.0519 23.6752L98.5565 23.139Z" fill="#FF6500"/>
<path opacity="0.5" d="M106.901 29.7429L106.043 30.4556L105.369 29.6357L100.178 33.931L99.4585 33.0606L104.649 28.7652L103.975 27.9453L104.832 27.2325L106.901 29.7429Z" fill="#FF6500"/>
<path opacity="0.5" d="M107.866 31.017L108.51 31.9505L105.734 33.8616L106.296 34.6753L109.071 32.7641L109.714 33.6976L103.243 38.1506L102.599 37.2171L105.375 35.306L104.813 34.4923L102.038 36.4035L101.395 35.47L107.866 31.017Z" fill="#FF6500"/>
<path opacity="0.5" d="M107.854 40.579L105.602 42.2567L105.047 41.2602L106.39 40.2573L105.829 39.2481L104.265 39.8662L103.71 38.8697L106.308 37.8415L111.134 36.0629L111.89 37.419L107.854 40.579ZM107.292 39.5824L109.935 37.6145L106.87 38.8318L107.292 39.5824Z" fill="#FF6500"/>
<path opacity="0.5" d="M114.275 42.3766L113.259 42.837L112.824 41.872L106.681 44.6472L106.214 43.6128L112.357 40.8376L111.922 39.8725L112.937 39.4121L114.275 42.3766Z" fill="#FF6500"/>
<path opacity="0.5" d="M115.75 46.3439L116.249 48.0153C116.532 48.9804 116.148 49.6174 115.094 49.9328L113.965 50.2671C113.473 50.4121 113.063 50.3175 112.742 49.9832C112.653 50.4437 112.363 50.7401 111.871 50.8915L110.736 51.2258C109.683 51.5349 109.008 51.1879 108.705 50.1788L108.232 48.5767L115.75 46.3439ZM111.764 48.7028L109.607 49.3399L109.746 49.8129C109.84 50.1283 110.055 50.2355 110.395 50.1346L111.531 49.8003C111.77 49.731 111.903 49.5859 111.922 49.3651C111.928 49.302 111.909 49.1948 111.865 49.0434L111.764 48.7028ZM115 47.7441L112.843 48.3812L112.944 48.7218C112.988 48.8731 113.032 48.9741 113.063 49.0245C113.202 49.2011 113.391 49.2516 113.631 49.1759L114.766 48.8416C115.107 48.7407 115.233 48.5325 115.139 48.2172L115 47.7441Z" fill="#FF6500"/>
<path opacity="0.5" d="M117.107 51.2448L117.428 52.8658C117.624 53.856 117.176 54.4552 116.097 54.6697L114.937 54.8967C114.256 55.0292 113.751 54.8274 113.423 54.2849L110.087 56.2402L109.847 55.0229L113.038 53.3514L112.988 53.2127L109.62 53.8813L109.399 52.7711L117.107 51.2448ZM116.23 52.5756L114.022 53.0108L114.073 53.2694C114.104 53.4271 114.136 53.528 114.167 53.5785C114.287 53.7614 114.47 53.8308 114.716 53.7866L115.877 53.5596C116.23 53.4902 116.369 53.2947 116.306 52.973L116.23 52.5756Z" fill="#FF6500"/>
<path opacity="0.5" d="M112.029 60.0309C110.938 60.1445 110.332 59.6588 110.213 58.5802C110.099 57.5016 110.591 56.9088 111.689 56.7952L116.47 56.2969C117.561 56.1834 118.166 56.6628 118.28 57.7413C118.393 58.8199 117.901 59.4191 116.81 59.5326L112.029 60.0309ZM116.697 58.4099C117.044 58.3721 117.208 58.1892 117.176 57.8675V57.8612C117.144 57.5395 116.949 57.3944 116.596 57.4323L111.815 57.9306C111.461 57.9684 111.304 58.1513 111.335 58.473C111.367 58.801 111.562 58.946 111.916 58.9145L116.697 58.4099Z" fill="#FF6500"/>
<path opacity="0.5" d="M112.149 64.5281C111.052 64.547 110.49 64.0109 110.471 62.9261C110.452 61.8412 110.995 61.2925 112.099 61.2735L118.425 61.1726L118.444 62.3079L112.118 62.4089C111.764 62.4152 111.588 62.5792 111.594 62.9071C111.6 63.2414 111.777 63.3991 112.136 63.3928L118.463 63.2919L118.482 64.4272L112.149 64.5281Z" fill="#FF6500"/>
<path opacity="0.5" d="M111.846 69.0064C110.749 68.9181 110.244 68.3378 110.326 67.2529C110.414 66.1743 111.001 65.6761 112.105 65.7644L116.892 66.1428C117.99 66.2311 118.494 66.8114 118.406 67.8963C118.318 68.9812 117.731 69.4794 116.633 69.3911L115.58 69.3091L115.668 68.1801L116.722 68.2621C117.075 68.2873 117.264 68.1423 117.289 67.8143V67.808C117.315 67.4863 117.151 67.3097 116.797 67.2781L112.01 66.8997C111.657 66.8745 111.468 67.0195 111.443 67.3475C111.417 67.6755 111.581 67.8584 111.934 67.8837L113.77 68.0287L113.808 67.5368L114.924 67.625L114.798 69.2461L111.846 69.0064Z" fill="#FF6500"/>
<path opacity="0.5" d="M117.92 71.3528L117.725 72.4692L114.407 71.8952L114.237 72.8665L117.554 73.4405L117.359 74.5569L109.62 73.2134L109.815 72.097L113.133 72.671L113.303 71.6997L109.985 71.1257L110.181 70.0093L117.92 71.3528Z" fill="#FF6500"/>
<path opacity="0.5" d="M116.192 79.2496L115.114 78.9594L115.385 77.9376L108.875 76.2031L109.166 75.1056L115.675 76.8401L115.946 75.812L117.025 76.1022L116.192 79.2496Z" fill="#FF6500"/>
<path opacity="0.5" d="M107.734 83.791C106.718 83.3684 106.422 82.6493 106.838 81.6465C107.254 80.6499 107.974 80.3597 108.989 80.7886L114.823 83.2359L114.382 84.2829L108.548 81.8357C108.22 81.6969 107.992 81.7789 107.866 82.0817C107.74 82.3844 107.841 82.6052 108.163 82.7439L113.997 85.1912L113.562 86.2382L107.734 83.791Z" fill="#FF6500"/>
<path opacity="0.5" d="M111.443 87.159C112.414 87.6762 112.641 88.4142 112.136 89.3666C111.626 90.3253 110.888 90.5461 109.916 90.0289L108.983 89.5306L109.513 88.5277L110.446 89.026C110.755 89.19 110.988 89.1332 111.146 88.8431L111.152 88.8368C111.304 88.5466 111.228 88.3196 110.913 88.1556L110.282 87.8213C109.973 87.6573 109.431 87.7708 108.648 88.1556C107.873 88.5403 107.172 88.5719 106.548 88.2376L105.671 87.7708C104.7 87.2536 104.467 86.5157 104.978 85.557C105.488 84.5982 106.233 84.3775 107.204 84.8947L108.138 85.393L107.601 86.3895L106.668 85.8912C106.353 85.7273 106.119 85.784 105.961 86.0805C105.804 86.3706 105.886 86.5977 106.201 86.768L106.99 87.1906C107.324 87.3672 107.879 87.2662 108.661 86.8815C109.437 86.4967 110.15 86.4715 110.787 86.8121L111.443 87.159Z" fill="#FF6500"/>
<path opacity="0.5" d="M108.863 94.5703L108.194 95.4848L105.476 93.498L104.895 94.2991L107.614 96.2859L106.945 97.2005L100.6 92.5645L101.269 91.6499L103.987 93.6368L104.567 92.8357L101.849 90.8489L102.517 89.9343L108.863 94.5703Z" fill="#FF6500"/>
<path opacity="0.5" d="M105.728 98.6953L103.792 100.903L102.953 100.165L104.145 98.8089L102.455 97.3266L101.433 98.4935L100.588 97.7555L101.609 96.5887L99.919 95.1064L98.7269 96.4625L97.8881 95.7246L99.8244 93.517L105.728 98.6953Z" fill="#FF6500"/>
<path opacity="0.5" d="M102.612 102.133L101.42 103.275C100.688 103.968 99.9441 103.918 99.1872 103.123L98.3736 102.272C97.8942 101.773 97.7933 101.237 98.0771 100.67L94.6333 98.9098L95.5289 98.052L98.6574 99.8433L98.7457 99.7298L96.3741 97.2447L97.1941 96.4625L102.612 102.133ZM101.023 102.114L99.4648 100.487L99.2755 100.67C99.162 100.777 99.0926 100.859 99.0611 100.916C98.9728 101.117 99.0106 101.307 99.1872 101.49L100.001 102.341C100.247 102.6 100.493 102.612 100.726 102.391L101.023 102.114Z" fill="#FF6500"/>
<path opacity="0.5" d="M98.9035 105.558L96.6076 107.393L95.9075 106.523L97.3203 105.394L95.9138 103.634L94.7027 104.605L94.0026 103.729L95.2136 102.757L93.8071 101.004L92.4006 102.133L91.7004 101.262L93.9963 99.427L98.9035 105.558Z" fill="#FF6500"/>
<path d="M48.8417 81.842C48.8417 75.6355 51.9323 70.3246 58.1198 65.9095C63.9163 61.7655 66.8304 58.2964 66.8493 55.5149V42.4333C66.8493 39.8725 65.7518 38.5921 63.5568 38.5921H63.4874C61.2672 38.5921 60.1571 39.8725 60.1571 42.4333V52.0458H48.8417V42.4333C48.8417 32.6253 53.7236 27.7245 63.4874 27.7245C73.2702 27.7245 78.1648 32.6316 78.1648 42.4333V55.7546C78.1648 62.0746 75.0615 67.4548 68.8551 71.8952C63.0586 76.0392 60.1571 79.6281 60.1571 82.6682V85.9985H78.1648V96.8346H48.8417V81.842Z" fill="#FF6500"/>
<path d="M45.9023 106.712C46.4511 105.116 47.5233 104.599 49.1128 105.148C50.7086 105.697 51.2258 106.769 50.6771 108.365L50.1346 109.935L48.2929 109.298L48.8353 107.728C48.9804 107.318 48.8668 107.046 48.5073 106.914L48.4947 106.908C48.1352 106.781 47.8892 106.933 47.7441 107.349L47.4035 108.333C47.2458 108.781 47.5234 109.513 48.2361 110.515C48.9993 111.581 49.2011 112.622 48.8542 113.625L48.3812 114.994C47.8261 116.589 46.7602 117.113 45.1707 116.564C43.5812 116.009 43.0577 114.937 43.6128 113.341L44.1552 111.771L45.997 112.408L45.4545 113.978C45.3095 114.394 45.423 114.666 45.7888 114.792C46.1483 114.918 46.4006 114.773 46.5457 114.357L46.9746 113.12C47.1449 112.628 46.8737 111.884 46.1673 110.875C45.4041 109.809 45.2022 108.756 45.5617 107.721L45.9023 106.712Z" fill="#FF6500"/>
<path d="M57.6971 107.431L57.3502 109.267L55.8238 108.976L53.9884 118.652L52.0709 118.286L53.9064 108.611L52.38 108.32L52.7269 106.485L57.6971 107.431Z" fill="#FF6500"/>
<path d="M59.1795 107.576L63.7587 107.797L63.6704 109.664L61.0339 109.538L60.8889 112.59L63.1595 112.698L63.0712 114.571L60.8069 114.464L60.6618 117.517L63.2983 117.643L63.21 119.51L58.6245 119.289L59.1795 107.576Z" fill="#FF6500"/>
<path d="M65.386 107.753L67.9342 107.513C69.4984 107.368 70.3562 108.138 70.5139 109.815L70.6779 111.531C70.7914 112.761 70.312 113.612 69.2335 114.079C68.9749 114.193 68.5901 114.268 68.0918 114.319L67.9657 114.331L68.4261 119.232L66.4835 119.415L65.386 107.753ZM67.5053 109.431L67.7891 112.471L68.0225 112.452C68.2306 112.433 68.3694 112.408 68.4261 112.376C68.6595 112.256 68.7668 112.035 68.7352 111.72L68.5712 110.005C68.5334 109.563 68.3189 109.355 67.9405 109.393L67.5053 109.431Z" fill="#FF6500"/>
<path d="M78.4232 114.811C78.0763 113.801 78.2844 112.761 79.0413 111.695C79.7541 110.698 80.0316 109.967 79.8802 109.512L79.1485 107.381C79.0035 106.964 78.7575 106.819 78.398 106.939L78.3854 106.945C78.0258 107.071 77.9123 107.336 78.0574 107.759L78.5935 109.323L76.7517 109.954L76.2156 108.39C75.6669 106.794 76.1904 105.722 77.7799 105.173C79.3756 104.624 80.4479 105.148 80.9966 106.75L81.7409 108.92C82.0941 109.948 81.8923 111.001 81.1291 112.067C80.4163 113.064 80.1451 113.814 80.3154 114.306L80.5047 114.848L83.4376 113.839L84.0431 115.605L79.2684 117.245L78.4232 114.811Z" fill="#FF6500"/>
</svg>
