<svg width="127" height="127" viewBox="0 0 127 127" fill="none" xmlns="http://www.w3.org/2000/svg">
<path d="M63.5 126C98.0178 126 126 98.0178 126 63.5C126 28.9822 98.0178 1 63.5 1C28.9822 1 1 28.9822 1 63.5C1 98.0178 28.9822 126 63.5 126Z" fill="white" stroke="#FF6500" stroke-width="0.792505"/>
<path opacity="0.5" d="M35.2488 101.212L30.3669 107.361L29.4775 106.655L33.6657 101.376L32.2528 100.253L32.9466 99.3763L35.2488 101.212Z" fill="#FF6500"/>
<path opacity="0.5" d="M26.9165 104.536L24.772 102.524L25.5352 101.71L26.8534 102.946L28.3924 101.306L27.2571 100.247L28.0266 99.4268L29.1619 100.486L30.7009 98.8465L29.3827 97.6103L30.1459 96.7966L32.2904 98.8087L26.9165 104.536Z" fill="#FF6500"/>
<path opacity="0.5" d="M21.6504 99.1557L22.4767 98.4051L23.1894 99.1936L28.1848 94.6711L28.948 95.51L23.9526 100.032L24.6653 100.821L23.8391 101.571L21.6504 99.1557Z" fill="#FF6500"/>
<path opacity="0.5" d="M20.7166 98.0079L19.8525 96.9041L20.7608 96.1914L22.1736 95.63L22.6278 96.2103L21.4546 96.8347L21.7447 97.2006L20.7166 98.0079Z" fill="#FF6500"/>
<path opacity="0.5" d="M20.0669 94.6647C19.1523 95.2765 18.3954 95.1378 17.7899 94.2358C17.1844 93.3339 17.3358 92.577 18.2503 91.9652L19.1271 91.3723L19.7578 92.3121L18.8811 92.905C18.591 93.1005 18.5342 93.3402 18.7171 93.6114L18.7234 93.6177C18.9063 93.8889 19.146 93.9268 19.4361 93.7249L20.029 93.3276C20.3192 93.132 20.4769 92.6022 20.5021 91.7318C20.5273 90.8614 20.8301 90.2306 21.4167 89.8396L22.243 89.2845C23.1575 88.6664 23.9144 88.8115 24.5199 89.7071C25.1255 90.6091 24.9678 91.366 24.0595 91.9841L23.1828 92.577L22.552 91.6372L23.4288 91.0443C23.7252 90.8488 23.7757 90.6091 23.5927 90.3379C23.4098 90.0666 23.1701 90.0288 22.8737 90.2243L22.1294 90.7226C21.814 90.9371 21.6437 91.4732 21.6185 92.3436C21.5933 93.214 21.2842 93.8511 20.685 94.2547L20.0669 94.6647Z" fill="#FF6500"/>
<path opacity="0.5" d="M14.7433 88.9127L14.018 87.4304C13.5764 86.5221 13.854 85.8283 14.8442 85.349L15.9039 84.8318C16.6355 84.4785 17.26 84.5732 17.7898 85.1156C17.916 85.2481 18.0547 85.4625 18.1998 85.759L18.2818 85.923L21.3094 84.447L21.8076 85.4625L14.7433 88.9127ZM15.2479 87.4052L17.2726 86.4149L17.1591 86.1816C17.0897 86.0428 17.0329 85.9482 16.9888 85.904C16.8248 85.7527 16.6292 85.7337 16.4022 85.8473L15.3425 86.3645C15.0208 86.5222 14.9325 86.7492 15.0776 87.0457L15.2479 87.4052Z" fill="#FF6500"/>
<path opacity="0.5" d="M12.6876 84.51L11.6343 81.7663L12.675 81.3626L13.3247 83.0467L15.425 82.2393L14.87 80.7886L15.917 80.385L16.4721 81.8356L18.5724 81.0283L17.9228 79.3442L18.9635 78.9406L20.0168 81.6843L12.6876 84.51Z" fill="#FF6500"/>
<path opacity="0.5" d="M11.085 80.1388L10.6309 78.5556C10.3597 77.5843 10.7508 76.9535 11.8041 76.6508L12.9394 76.3291C13.6017 76.1399 14.1252 76.2976 14.4974 76.8148L17.6637 74.5883L18.0043 75.7804L14.9641 77.7104L15.0209 77.8429L18.3259 76.8968L18.635 77.988L11.085 80.1388ZM11.8482 78.7385L14.0117 78.1204L13.9423 77.8681C13.8981 77.7167 13.8603 77.6158 13.8225 77.5653C13.69 77.3887 13.5008 77.3383 13.2548 77.4077L12.1195 77.7293C11.7789 77.8303 11.6464 78.0321 11.741 78.3475L11.8482 78.7385Z" fill="#FF6500"/>
<path opacity="0.5" d="M9.78586 75.2504L9.4768 73.6294C9.29388 72.6392 9.74171 72.0463 10.8203 71.8381L11.9808 71.6174C12.7756 71.466 13.3622 71.7246 13.728 72.3932C13.8163 72.5508 13.892 72.7968 13.9488 73.1185L13.9803 73.3014L17.2854 72.6707L17.4935 73.7808L9.78586 75.2504ZM10.6689 73.9322L12.8765 73.5096L12.826 73.251C12.7945 73.0933 12.7693 72.9924 12.7314 72.9356C12.6116 72.7464 12.4287 72.677 12.1827 72.7275L11.0221 72.9482C10.6689 73.0176 10.5238 73.2068 10.5869 73.5348L10.6689 73.9322Z" fill="#FF6500"/>
<path opacity="0.5" d="M8.96564 70.4696L8.66919 67.5493L9.77929 67.4357L9.96221 69.2333L12.2013 69.0063L12.0436 67.461L13.1601 67.3474L13.3177 68.8927L15.5569 68.6657L15.3739 66.8681L16.484 66.7545L16.7805 69.6748L8.96564 70.4696Z" fill="#FF6500"/>
<path opacity="0.5" d="M8.51831 62.9385L9.63472 62.9196L9.65364 63.9792L16.3899 63.8531L16.4089 64.9884L9.67257 65.1145L9.69149 66.1742L8.57508 66.1931L8.51831 62.9385Z" fill="#FF6500"/>
<path opacity="0.5" d="M15.0904 58.5802C16.1879 58.6559 16.6988 59.2299 16.6294 60.3148C16.5537 61.3933 15.9734 61.8979 14.8696 61.8285L8.55591 61.406L8.63159 60.2769L14.9453 60.6995C15.2985 60.7248 15.4877 60.5734 15.5067 60.2454C15.5319 59.9174 15.3616 59.7408 15.0084 59.7156L8.69467 59.293L8.77036 58.1639L15.0904 58.5802Z" fill="#FF6500"/>
<path opacity="0.5" d="M14.4979 53.9631L17.311 54.0388L17.1281 55.1679L15.4503 55.1237L15.2674 56.2654L16.8758 56.751L16.6929 57.88L14.0123 57.0727L9.12402 55.4769L9.37001 53.9442L14.4979 53.9631ZM14.315 55.0922L11.0225 54.9976L14.1763 55.9437L14.315 55.0922Z" fill="#FF6500"/>
<path opacity="0.5" d="M10.5743 48.5576L11.6592 48.8288L11.4005 49.8569L17.935 51.4906L17.6575 52.588L11.123 50.9544L10.8644 51.9825L9.77954 51.7113L10.5743 48.5576Z" fill="#FF6500"/>
<path opacity="0.5" d="M11.0225 47.0692L11.9686 44.2876L13.0282 44.6471L12.4479 46.3564L14.5798 47.0818L15.0781 45.6122L16.1377 45.9717L15.6395 47.4413L17.7714 48.1666L18.3516 46.4573L19.4113 46.8169L18.4652 49.5984L11.0225 47.0692Z" fill="#FF6500"/>
<path opacity="0.5" d="M14.9512 37.6648L15.9541 38.1631L15.481 39.1155L21.5172 42.1052L21.0126 43.1207L14.9764 40.131L14.5034 41.0834L13.5005 40.5851L14.9512 37.6648Z" fill="#FF6500"/>
<path opacity="0.5" d="M15.7219 36.277L16.3148 35.3119L19.191 37.0654L19.7082 36.2202L16.832 34.4667L17.4249 33.5017L24.1297 37.5952L23.5368 38.5602L20.6606 36.8068L20.1434 37.652L23.0196 39.4054L22.4267 40.3705L15.7219 36.277Z" fill="#FF6500"/>
<path opacity="0.5" d="M18.5029 31.9124L20.2501 29.5535L21.1457 30.2157L20.0735 31.6664L21.8837 33.0036L22.8109 31.7547L23.7129 32.4233L22.7857 33.6722L24.5959 35.0094L25.6682 33.5587L26.5638 34.2209L24.8167 36.5799L18.5029 31.9124Z" fill="#FF6500"/>
<path opacity="0.5" d="M30.3548 30.0202L29.27 31.1304L25.0819 28.1533L22.8364 26.4755L23.6375 25.6555L28.5257 29.3138L24.7539 24.5076L25.5549 23.6876L27.2894 25.8952L30.3548 30.0202Z" fill="#FF6500"/>
<path opacity="0.5" d="M33.218 25.4096C33.9308 26.2485 33.874 27.018 33.0477 27.7244C32.2214 28.4245 31.4519 28.3615 30.7392 27.5226L27.6233 23.8643C26.9106 23.0254 26.9673 22.2559 27.7936 21.5558C28.6199 20.8494 29.3894 20.9187 30.1021 21.7576L33.218 25.4096ZM29.238 22.4893C29.0109 22.2181 28.7713 22.1928 28.519 22.401L28.5127 22.4073C28.2667 22.6154 28.254 22.8614 28.4874 23.1326L31.6033 26.7909C31.8367 27.0621 32.0764 27.0874 32.3224 26.8792C32.5747 26.6648 32.5873 26.4251 32.3539 26.1539L29.238 22.4893Z" fill="#FF6500"/>
<path opacity="0.5" d="M30.5181 19.5249L31.4326 18.8563L36.0875 25.189L35.173 25.8575L30.5181 19.5249Z" fill="#FF6500"/>
<path opacity="0.5" d="M38.9766 21.4675C39.5631 22.3947 39.3992 23.1515 38.4783 23.7381C37.5637 24.3184 36.8068 24.1418 36.2202 23.2083L33.6531 19.1464C33.0666 18.2192 33.2305 17.4623 34.1451 16.882C35.066 16.3017 35.8166 16.4783 36.4032 17.4055L36.9645 18.3012L36.0058 18.9067L35.4444 18.011C35.2552 17.7146 35.0218 17.6515 34.7443 17.8218L34.738 17.8281C34.4605 18.0047 34.4226 18.2381 34.6119 18.5408L37.179 22.6028C37.3682 22.9056 37.6016 22.9686 37.8791 22.792C38.1566 22.6154 38.2071 22.3757 38.0115 22.0793L37.4502 21.1836L38.4089 20.5781L38.9766 21.4675Z" fill="#FF6500"/>
<path opacity="0.5" d="M37.147 15.2419L39.7582 13.8984L40.2691 14.8887L38.6671 15.715L39.6952 17.7144L41.0765 17.0017L41.5874 17.9982L40.2061 18.711L41.2342 20.7104L42.8363 19.8842L43.3472 20.8744L40.7359 22.2179L37.147 15.2419Z" fill="#FF6500"/>
<path opacity="0.5" d="M41.8344 14.6174C41.4181 13.6019 41.7145 12.8829 42.7174 12.4792C43.7203 12.0692 44.433 12.372 44.8493 13.3938L45.2467 14.3714L44.1996 14.8003L43.8023 13.8227C43.6698 13.4947 43.4491 13.3938 43.1463 13.5136H43.14C42.8373 13.6335 42.7552 13.8605 42.8877 14.1885L43.1589 14.8508C43.2914 15.1725 43.7771 15.4374 44.6286 15.6392C45.4738 15.8411 46.0288 16.2637 46.2937 16.9196L46.6658 17.8405C47.0821 18.8623 46.7857 19.575 45.7828 19.985C44.7736 20.395 44.0672 20.0859 43.6509 19.0704L43.2535 18.0928L44.3006 17.6639L44.6979 18.6415C44.8304 18.9695 45.0511 19.0704 45.3602 18.9506C45.663 18.8245 45.7513 18.5974 45.6125 18.2694L45.2719 17.4368C45.1268 17.0836 44.6349 16.8061 43.7897 16.6043C42.9445 16.4024 42.3831 15.9672 42.1119 15.2986L41.8344 14.6174Z" fill="#FF6500"/>
<path opacity="0.5" d="M52.8402 14.7245L53.8746 17.3357L52.7645 17.6133L52.1463 16.049L51.0236 16.3329L51.2128 18.0043L50.1091 18.2818L49.7937 15.5003L49.3333 10.3787L50.8407 10.0002L52.8402 14.7245ZM51.7301 15.002L50.5127 11.9366L50.8912 15.2102L51.7301 15.002Z" fill="#FF6500"/>
<path opacity="0.5" d="M53.5342 9.42032L54.6569 9.25003L56.4041 13.5895L55.7166 9.08603L56.751 8.92834L57.9368 16.6928L56.8141 16.8631L55.1237 12.656L55.7923 17.0207L54.7137 17.1847L53.5342 9.42032Z" fill="#FF6500"/>
<path opacity="0.5" d="M58.675 8.72642L60.4159 8.6255C61.4188 8.56874 61.955 9.09225 62.018 10.1897L62.283 14.7374C62.346 15.8349 61.854 16.4151 60.8007 16.4782L59.1292 16.5728L58.675 8.72642ZM59.8735 9.77345L60.2015 15.387L60.6998 15.3555C61.0278 15.3366 61.1791 15.1474 61.1602 14.7941L60.8953 10.2465C60.8764 9.88699 60.6998 9.72299 60.3718 9.74192L59.8735 9.77345Z" fill="#FF6500"/>
<path opacity="0.5" d="M68.4762 14.1701L70.318 8.94757L71.447 9.06111L70.6712 16.876L69.5926 16.7688L70.0278 12.3851L68.6276 16.6741L67.8644 16.5985L67.3094 12.1139L66.8741 16.4975L65.783 16.3903L66.5588 8.57544L67.6878 8.68898L68.4762 14.1701Z" fill="#FF6500"/>
<path opacity="0.5" d="M73.4344 9.42053L76.3106 10.0197L76.0835 11.1109L74.3174 10.7451L73.857 12.9464L75.3771 13.2617L75.15 14.3592L73.6299 14.0439L73.1695 16.2451L74.9355 16.611L74.7085 17.7021L71.8323 17.1029L73.4344 9.42053Z" fill="#FF6500"/>
<path opacity="0.5" d="M77.4575 11.8802C77.7792 10.8268 78.4541 10.461 79.4885 10.7701C80.5292 11.0854 80.8887 11.7666 80.567 12.82L80.258 13.8291L79.1731 13.5012L79.4822 12.492C79.5831 12.1577 79.4759 11.9369 79.1668 11.8423H79.1605C78.8514 11.7477 78.6433 11.8675 78.5361 12.2081L78.3279 12.8893C78.227 13.2236 78.4415 13.7345 78.9713 14.4283C79.5011 15.1158 79.6651 15.7971 79.4633 16.4719L79.1731 17.4244C78.8514 18.4777 78.1766 18.8498 77.1358 18.5345C76.0951 18.2191 75.7356 17.5316 76.0573 16.4782L76.3663 15.4691L77.4512 15.797L77.1421 16.8062C77.0412 17.1468 77.1485 17.3613 77.4638 17.4622C77.7792 17.5568 77.9873 17.437 78.0882 17.0964L78.3469 16.2386C78.4541 15.8727 78.2459 15.3492 77.7161 14.6617C77.1863 13.9742 77.0223 13.2867 77.2368 12.5929L77.4575 11.8802Z" fill="#FF6500"/>
<path opacity="0.5" d="M82.1131 13.3751C82.5294 12.3596 83.2358 12.0505 84.2386 12.4605C85.2478 12.8705 85.538 13.5832 85.128 14.605L84.7306 15.5827L83.6836 15.1538L84.081 14.1761C84.2134 13.8482 84.1314 13.6211 83.8224 13.4949H83.8161C83.5133 13.3751 83.2989 13.476 83.1601 13.804L82.8889 14.4663C82.7564 14.788 82.9204 15.3178 83.3872 16.0557C83.8539 16.7874 83.9548 17.4812 83.6836 18.1372L83.3115 19.0581C82.8952 20.0799 82.1888 20.3826 81.1796 19.9789C80.1767 19.569 79.8803 18.8499 80.2903 17.8344L80.6876 16.8568L81.7346 17.2857L81.3373 18.2633C81.2048 18.5913 81.2868 18.8184 81.5959 18.9445C81.8986 19.0707 82.1194 18.9635 82.2518 18.6355L82.5924 17.8029C82.7375 17.4497 82.5735 16.9072 82.1131 16.1693C81.6463 15.4376 81.5517 14.7312 81.8229 14.0626L82.1131 13.3751Z" fill="#FF6500"/>
<path opacity="0.5" d="M87.8464 19.9159L86.8876 22.5587L85.8722 22.0289L86.4461 20.452L85.418 19.9222L84.453 21.2972L83.4375 20.7737L85.0396 18.4778L88.0924 14.3339L89.4737 15.0466L87.8464 19.9159ZM86.8309 19.3861L87.9536 16.2892L86.0677 18.9887L86.8309 19.3861Z" fill="#FF6500"/>
<path opacity="0.5" d="M91.1074 23.4291C90.5145 24.3563 89.7576 24.5266 88.843 23.94C87.9284 23.3534 87.7707 22.5965 88.3699 21.6693L90.9686 17.6263C91.5615 16.6991 92.3184 16.5288 93.2267 17.1154C94.1413 17.702 94.299 18.4588 93.7061 19.386L93.1321 20.2754L92.1797 19.6636L92.7537 18.7742C92.9429 18.4778 92.905 18.2381 92.6275 18.0615L92.6212 18.0552C92.35 17.8786 92.1166 17.9416 91.9211 18.2381L89.3224 22.2811C89.1332 22.5776 89.171 22.8173 89.4485 22.9939C89.7261 23.1705 89.9594 23.1137 90.155 22.8109L91.1516 21.2593L90.7353 20.9944L91.3408 20.0483L92.7095 20.925L91.1074 23.4291Z" fill="#FF6500"/>
<path opacity="0.5" d="M96.0269 19.1714L98.348 20.969L97.6668 21.852L96.2414 20.7482L94.8664 22.5269L96.0963 23.4793L95.4088 24.3687L94.1789 23.4163L92.8039 25.195L94.2294 26.2987L93.5482 27.1818L91.2271 25.3842L96.0269 19.1714Z" fill="#FF6500"/>
<path opacity="0.5" d="M98.5559 23.1391C99.3002 22.3318 100.076 22.294 100.871 23.0319C101.665 23.7699 101.697 24.5394 100.946 25.3467L100.227 26.1225L99.3948 25.353L100.114 24.5772C100.353 24.3186 100.353 24.0789 100.114 23.8519L100.107 23.8456C99.8678 23.6248 99.6281 23.6437 99.3885 23.9023L98.9028 24.4259C98.6631 24.6845 98.6379 25.2395 98.8082 26.091C98.9848 26.9425 98.8334 27.6237 98.354 28.1409L97.6792 28.8726C96.9286 29.6799 96.1591 29.7178 95.3644 28.9861C94.5696 28.2481 94.5444 27.4723 95.2887 26.665L96.0077 25.8892L96.8403 26.6587L96.1212 27.4345C95.8816 27.6931 95.8816 27.9391 96.1212 28.1598C96.3609 28.3806 96.6006 28.3617 96.8466 28.1031L97.4521 27.4471C97.7107 27.1696 97.7485 26.6019 97.5782 25.7504C97.4016 24.8989 97.5593 24.2114 98.0513 23.6753L98.5559 23.1391Z" fill="#FF6500"/>
<path opacity="0.5" d="M106.901 29.7429L106.043 30.4556L105.369 29.6357L100.178 33.931L99.4585 33.0606L104.65 28.7652L103.975 27.9453L104.832 27.2325L106.901 29.7429Z" fill="#FF6500"/>
<path opacity="0.5" d="M107.865 31.0167L108.509 31.9502L105.734 33.8614L106.295 34.675L109.07 32.7639L109.713 33.6974L103.242 38.1504L102.599 37.2169L105.374 35.3058L104.813 34.4921L102.037 36.4032L101.394 35.4697L107.865 31.0167Z" fill="#FF6500"/>
<path opacity="0.5" d="M107.853 40.5791L105.602 42.2568L105.047 41.2603L106.39 40.2574L105.829 39.2482L104.265 39.8664L103.709 38.8698L106.308 37.8417L111.133 36.063L111.89 37.4191L107.853 40.5791ZM107.292 39.5825L109.935 37.6146L106.869 38.8319L107.292 39.5825Z" fill="#FF6500"/>
<path opacity="0.5" d="M114.274 42.3767L113.259 42.8371L112.824 41.8721L106.68 44.6474L106.214 43.613L112.357 40.8377L111.922 39.8727L112.937 39.4122L114.274 42.3767Z" fill="#FF6500"/>
<path opacity="0.5" d="M115.751 46.344L116.249 48.0155C116.533 48.9805 116.148 49.6175 115.095 49.9329L113.966 50.2672C113.474 50.4123 113.064 50.3176 112.742 49.9834C112.654 50.4438 112.364 50.7402 111.872 50.8916L110.736 51.2259C109.683 51.535 109.008 51.1881 108.705 50.1789L108.232 48.5768L115.751 46.344ZM111.771 48.703L109.614 49.34L109.752 49.8131C109.847 50.1284 110.061 50.2357 110.402 50.1347L111.537 49.8005C111.777 49.7311 111.909 49.586 111.928 49.3652C111.935 49.3022 111.916 49.1949 111.872 49.0436L111.771 48.703ZM115 47.7442L112.843 48.3813L112.944 48.7219C112.988 48.8733 113.032 48.9742 113.064 49.0246C113.202 49.2012 113.392 49.2517 113.631 49.176L114.767 48.8417C115.107 48.7408 115.234 48.5327 115.139 48.2173L115 47.7442Z" fill="#FF6500"/>
<path opacity="0.5" d="M117.107 51.2445L117.428 52.8655C117.624 53.8558 117.176 54.455 116.097 54.6694L114.937 54.8965C114.256 55.0289 113.751 54.8271 113.423 54.2847L110.086 56.24L109.847 55.0226L113.038 53.3512L112.988 53.2124L109.62 53.881L109.399 52.7709L117.107 51.2445ZM116.23 52.5754L114.022 53.0106L114.073 53.2692C114.104 53.4269 114.136 53.5278 114.167 53.5783C114.287 53.7612 114.47 53.8305 114.716 53.7864L115.877 53.5593C116.23 53.4899 116.369 53.2944 116.305 52.9727L116.23 52.5754Z" fill="#FF6500"/>
<path opacity="0.5" d="M112.035 60.0308C110.944 60.1443 110.338 59.6587 110.219 58.5801C110.105 57.5015 110.597 56.9086 111.695 56.7951L116.475 56.2968C117.567 56.1833 118.172 56.6627 118.286 57.7412C118.399 58.8198 117.907 59.419 116.816 59.5325L112.035 60.0308ZM116.696 58.4098C117.043 58.372 117.207 58.189 117.176 57.8674V57.8611C117.144 57.5394 116.949 57.3943 116.595 57.4321L111.814 57.9304C111.461 57.9683 111.303 58.1512 111.335 58.4729C111.367 58.8009 111.562 58.9459 111.915 58.9144L116.696 58.4098Z" fill="#FF6500"/>
<path opacity="0.5" d="M112.149 64.528C111.052 64.5469 110.49 64.0108 110.471 62.9259C110.453 61.8411 110.995 61.2923 112.099 61.2734L118.425 61.1725L118.444 62.3078L112.118 62.4087C111.764 62.415 111.588 62.579 111.594 62.907C111.6 63.2413 111.777 63.399 112.137 63.3927L118.463 63.2918L118.482 64.4271L112.149 64.528Z" fill="#FF6500"/>
<path opacity="0.5" d="M111.846 69.0061C110.748 68.9178 110.244 68.3375 110.326 67.2527C110.414 66.1741 111.001 65.6758 112.104 65.7641L116.892 66.1426C117.989 66.2309 118.494 66.8112 118.405 67.896C118.317 68.9809 117.731 69.4792 116.633 69.3909L115.58 69.3089L115.668 68.1799L116.721 68.2619C117.075 68.2871 117.264 68.142 117.289 67.814V67.8077C117.314 67.486 117.15 67.3094 116.797 67.2779L112.01 66.8995C111.657 66.8742 111.467 67.0193 111.442 67.3473C111.417 67.6753 111.581 67.8582 111.934 67.8834L113.77 68.0285L113.807 67.5365L114.924 67.6248L114.798 69.2458L111.846 69.0061Z" fill="#FF6500"/>
<path opacity="0.5" d="M117.926 71.3528L117.731 72.4692L114.413 71.8952L114.243 72.8665L117.56 73.4405L117.365 74.5569L109.626 73.2135L109.821 72.097L113.139 72.671L113.309 71.6997L109.992 71.1257L110.187 70.0093L117.926 71.3528Z" fill="#FF6500"/>
<path opacity="0.5" d="M116.192 79.2494L115.113 78.9593L115.385 77.9375L108.875 76.2029L109.165 75.1055L115.675 76.84L115.946 75.8119L117.024 76.102L116.192 79.2494Z" fill="#FF6500"/>
<path opacity="0.5" d="M107.734 83.7907C106.719 83.3681 106.422 82.6491 106.838 81.6462C107.255 80.6497 107.974 80.3595 108.989 80.7884L114.824 83.2357L114.382 84.2827L108.548 81.8354C108.22 81.6967 107.993 81.7787 107.867 82.0814C107.74 82.3842 107.841 82.6049 108.163 82.7437L113.997 85.191L113.562 86.238L107.734 83.7907Z" fill="#FF6500"/>
<path opacity="0.5" d="M111.449 87.1589C112.42 87.6761 112.647 88.4141 112.143 89.3665C111.632 90.3252 110.894 90.546 109.922 90.0288L108.989 89.5305L109.519 88.5276L110.452 89.0259C110.761 89.1899 110.995 89.1331 111.152 88.843L111.159 88.8367C111.31 88.5465 111.234 88.3195 110.919 88.1555L110.288 87.8212C109.979 87.6572 109.437 87.7707 108.655 88.1555C107.879 88.5402 107.179 88.5718 106.554 88.2375L105.678 87.7707C104.706 87.2535 104.473 86.5156 104.984 85.5568C105.495 84.5981 106.239 84.3773 107.21 84.8945L108.144 85.3928L107.608 86.3894L106.674 85.8911C106.359 85.7271 106.125 85.7839 105.968 86.0803C105.81 86.3705 105.892 86.5975 106.207 86.7678L106.996 87.1904C107.33 87.3671 107.885 87.2661 108.667 86.8814C109.443 86.4966 110.156 86.4714 110.793 86.812L111.449 87.1589Z" fill="#FF6500"/>
<path opacity="0.5" d="M108.863 94.5701L108.194 95.4847L105.475 93.4979L104.895 94.2989L107.614 96.2858L106.945 97.2003L100.6 92.5644L101.268 91.6498L103.987 93.6367L104.567 92.8356L101.849 90.8488L102.517 89.9342L108.863 94.5701Z" fill="#FF6500"/>
<path opacity="0.5" d="M105.728 98.6953L103.792 100.903L102.953 100.165L104.145 98.8089L102.455 97.3266L101.433 98.4935L100.588 97.7555L101.61 96.5887L99.9192 95.1064L98.7271 96.4625L97.8882 95.7246L99.8246 93.517L105.728 98.6953Z" fill="#FF6500"/>
<path opacity="0.5" d="M102.611 102.133L101.419 103.275C100.688 103.968 99.9434 103.918 99.1865 103.123L98.3729 102.272C97.8935 101.773 97.7926 101.237 98.0764 100.67L94.6326 98.9098L95.5282 98.052L98.6567 99.8433L98.745 99.7297L96.3734 97.2447L97.1934 96.4625L102.611 102.133ZM101.022 102.114L99.4641 100.487L99.2748 100.67C99.1613 100.777 99.0919 100.859 99.0604 100.916C98.9721 101.117 99.0099 101.307 99.1865 101.49L100 102.341C100.246 102.6 100.492 102.612 100.726 102.391L101.022 102.114Z" fill="#FF6500"/>
<path opacity="0.5" d="M98.903 105.558L96.6071 107.393L95.907 106.523L97.3199 105.394L95.9133 103.634L94.7023 104.605L94.0022 103.728L95.2132 102.757L93.8066 101.004L92.4001 102.133L91.7 101.262L93.9958 99.4268L98.903 105.558Z" fill="#FF6500"/>
<path d="M69.1577 28.8031V85.986H78.1583V96.8221H48.8352V85.986H57.8359V39.6455H48.8352V28.8094H69.1577V28.8031Z" fill="#FF6500"/>
<path d="M45.902 106.712C46.4507 105.116 47.523 104.599 49.1125 105.148C50.7082 105.696 51.2255 106.769 50.6767 108.364L50.1343 109.935L48.2925 109.298L48.8349 107.727C48.98 107.317 48.8665 107.046 48.507 106.914L48.4943 106.907C48.1348 106.781 47.8888 106.933 47.7438 107.349L47.4032 108.333C47.2455 108.781 47.523 109.512 48.2357 110.515C48.9989 111.581 49.2008 112.622 48.8539 113.625L48.3808 114.994C47.8258 116.589 46.7598 117.113 45.1703 116.564C43.5809 116.009 43.0573 114.937 43.6124 113.341L44.1548 111.77L45.9966 112.407L45.4542 113.978C45.3091 114.394 45.4226 114.666 45.7885 114.792C46.148 114.918 46.4003 114.773 46.5453 114.356L46.9743 113.12C47.1446 112.628 46.8733 111.884 46.1669 110.875C45.4037 109.809 45.2019 108.756 45.5614 107.721L45.902 106.712Z" fill="#FF6500"/>
<path d="M57.6969 107.431L57.35 109.266L55.8237 108.976L53.9882 118.652L52.0708 118.286L53.9062 108.61L52.3799 108.32L52.7268 106.485L57.6969 107.431Z" fill="#FF6500"/>
<path d="M59.1788 107.576L63.758 107.797L63.6697 109.664L61.0332 109.538L60.8882 112.59L63.1588 112.698L63.0705 114.571L60.8062 114.464L60.6611 117.516L63.2976 117.643L63.2093 119.51L58.6238 119.289L59.1788 107.576Z" fill="#FF6500"/>
<path d="M65.3857 107.753L67.934 107.513C69.4982 107.368 70.3561 108.138 70.5137 109.815L70.6777 111.531C70.7913 112.761 70.3119 113.612 69.2333 114.079C68.9747 114.193 68.59 114.268 68.0917 114.319L67.9718 114.331L68.4323 119.232L66.4896 119.415L65.3857 107.753ZM67.5051 109.431L67.7889 112.471L68.0223 112.452C68.2304 112.433 68.3692 112.408 68.426 112.376C68.6593 112.256 68.7666 112.036 68.735 111.72L68.571 110.005C68.5269 109.563 68.3187 109.355 67.9403 109.393L67.5051 109.431Z" fill="#FF6500"/>
<path d="M78.7638 105.034L81.9617 114.35L83.4313 113.846L84.0368 115.612L79.2621 117.252L78.6566 115.486L80.1262 114.981L77.5339 107.431L76.0643 107.936L75.4587 106.17L78.7638 105.034Z" fill="#FF6500"/>
</svg>
