<svg width="198" height="36" viewBox="0 0 198 36" fill="none" xmlns="http://www.w3.org/2000/svg">
<path d="M10.023 30.1484L0 5.57794H4.56772L11.0621 21.749L17.2318 5.57794H21.2583L11.7548 30.1484H10.023Z" fill="#FF6700"/>
<path d="M22.3828 17.8958C22.3828 10.4272 27.7515 5.3183 34.8087 5.3183C41.866 5.3183 47.2346 10.4272 47.2346 17.8958C47.2346 24.8231 42.6669 30.5381 34.8087 30.5381C26.9505 30.5381 22.3828 24.8231 22.3828 17.8958ZM42.8618 17.7875C42.8618 12.592 39.4414 8.89021 34.8304 8.89021C30.2194 8.89021 26.799 12.592 26.799 17.7875C26.799 22.7882 30.0029 26.9879 34.8304 26.9879C39.6579 26.9879 42.8618 22.8098 42.8618 17.7875Z" fill="#FF6700"/>
<path d="M51.5658 30.1489V27.9192L51.3926 16.5323V5.57849H55.6789V16.5323L55.5057 27.9192V30.1489H51.5658Z" fill="#FF6700"/>
<path d="M81.3107 27.01C78.215 29.7593 75.1194 30.5386 72.3052 30.5386C64.8799 30.5386 59.8359 25.105 59.8359 17.9179C59.8359 10.4926 65.2479 5.29712 72.4783 5.29712C75.6389 5.29712 78.4965 6.31457 81.2674 8.78244L80.0118 12.5925C78.1717 10.2761 75.4008 8.84738 72.3052 8.84738C67.4344 8.84738 64.2305 12.4193 64.2305 17.5715C64.2305 22.2258 66.8282 26.9451 72.2619 26.9451C74.7514 26.9451 77.1976 25.9709 79.8603 23.3082L81.3107 27.01Z" fill="#FF6700"/>
<path d="M85.2699 30.1489V27.9192L85.0967 16.2076V5.57849H99.1462V9.36688H89.383V15.1252H96.1588V18.9136H89.3397L89.2314 26.3822H99.1462V30.1705H85.2699V30.1489Z" fill="#FF6700"/>
<path d="M122.568 30.1481L121.378 15.7955L115.576 29.9533H113.585L107.501 16.3584L106.636 30.1698H102.522L104.038 5.59937H107.177L114.602 22.0302L121.638 5.59937H124.777L126.682 30.1698H122.568V30.1481Z" fill="#FF6700"/>
<path d="M131.576 30.1489V27.9192L131.403 16.5323V5.57849H135.689V16.5323L135.516 27.9192V30.1489H131.576Z" fill="#FF6700"/>
<path d="M155.802 30.1489L149.243 20.2125L142.532 30.1489H138.029L147.143 17.0303L139.241 5.57849H144.026L149.546 13.7614L155.066 5.57849H159.634L151.624 17.0303L160.565 30.1489H155.802Z" fill="#FF6700"/>
<path fill-rule="evenodd" clip-rule="evenodd" d="M186.628 0.894722C185.587 0.16474 184.355 -0.109497 183.172 0.0389035C183.119 0.0395442 183.065 0.0439725 183.01 0.0524078C182.831 0.0802226 182.656 0.121161 182.485 0.174571L182.479 0.176214C182.135 0.270068 181.799 0.40104 181.479 0.568257C181.446 0.584143 181.417 0.598996 181.39 0.61255C181.344 0.636128 181.307 0.656025 181.279 0.670906C181.266 0.678354 181.254 0.684567 181.246 0.689382L181.235 0.695543L181.231 0.697805L181.229 0.698724C181.229 0.698724 181.228 0.699367 181.232 0.706151L181.229 0.698724C181.192 0.719616 181.156 0.7433 181.122 0.768117C181.104 0.780944 181.084 0.795803 181.061 0.812338C180.773 1.00046 180.5 1.22053 180.249 1.47183C180.239 1.48201 180.229 1.49208 180.219 1.50203L165.76 16.2709C165.723 16.3086 165.687 16.3467 165.651 16.3851C165.639 16.3986 165.627 16.4121 165.614 16.4256C164.151 18.027 163.614 20.27 164.201 22.3912C164.202 22.3948 164.203 22.3984 164.204 22.402C164.771 24.3752 166.281 25.9419 168.198 26.603L172.531 33.875C173.529 35.5493 175.572 36.2682 177.402 35.571C179.258 34.8681 180.303 32.9232 179.915 31.0107L179.913 31.0024L179.545 29.2579L189.204 31.4876C191.719 32.0693 194.295 30.6329 195.078 28.1435C195.987 25.2953 196.352 20.6954 194.335 13.6309C194.223 13.2396 194.108 12.8584 193.991 12.488L197.909 7.65688C198.192 7.30826 197.755 6.85719 197.412 7.11543L193.198 10.2268C191.201 5.08027 188.708 2.34434 186.628 0.894722ZM177.1 28.6934L171.295 27.3533L174.487 32.7102C174.921 33.4384 175.799 33.746 176.592 33.4436L176.595 33.4426C177.393 33.1408 177.851 32.2999 177.684 31.4669L177.1 28.6934ZM192.907 27.4589C192.656 28.2585 192.058 28.8619 191.325 29.151C191.316 29.1524 191.308 29.1539 191.299 29.1556C191.29 29.1574 191.28 29.1594 191.27 29.1615C189.63 29.5203 187.912 28.5474 186.176 26.1307C185.05 24.5645 184.038 22.5444 183.175 20.3352L184.429 19.1505C184.633 18.9597 184.956 19.0484 185.041 19.3161L185.249 20.0267C185.559 21.0191 186.856 21.2753 187.52 20.4665L192.252 14.6325C194.057 21.1581 193.636 25.1763 192.909 27.4536L192.907 27.4589ZM186.41 9.75653L181.143 13.4827C180.513 10.2303 180.569 7.67248 180.984 5.82305C181.501 3.51405 182.484 2.57808 183.166 2.34947C183.894 2.17743 184.68 2.3082 185.322 2.75905L185.325 2.7613C187.037 3.95385 189.392 6.43849 191.295 11.6318L189.174 13.1982C188.935 13.3771 188.601 13.2077 188.579 12.9155L188.477 10.7643C188.423 9.72195 187.249 9.15442 186.41 9.75653ZM167.388 17.8622C167.358 17.8929 167.329 17.9241 167.3 17.9556C166.365 18.9767 166.021 20.4211 166.406 21.7537C166.806 23.1454 167.932 24.2233 169.349 24.5464L169.352 24.5471L184.827 28.1195C184.656 27.9047 184.489 27.684 184.327 27.4589C182.422 24.8074 180.894 21.145 179.801 17.5159L179.801 17.5142C178.447 12.9919 178.162 9.27896 178.559 6.45248L167.388 17.8622Z" fill="#FF6700"/>
</svg>
