<svg width="121" height="19" viewBox="0 0 121 19" fill="none" xmlns="http://www.w3.org/2000/svg">
<path d="M7.54255 18.7011L0 0.211304H3.43732L8.3245 12.3804L12.9673 0.211304H15.9974L8.8458 18.7011H7.54255Z" fill="white"/>
<path d="M16.8438 9.48059C16.8438 3.86033 20.8838 0.0157471 26.1946 0.0157471C31.5053 0.0157471 35.5454 3.86033 35.5454 9.48059C35.5454 14.6936 32.108 18.9943 26.1946 18.9943C20.2811 18.9943 16.8438 14.6936 16.8438 9.48059ZM32.2547 9.39914C32.2547 5.48939 29.6807 2.7037 26.2108 2.7037C22.7409 2.7037 20.167 5.48939 20.167 9.39914C20.167 13.1623 22.578 16.3226 26.2108 16.3226C29.8437 16.3226 32.2547 13.1786 32.2547 9.39914Z" fill="white"/>
<path d="M38.8046 18.7015V17.0236L38.6743 8.45472V0.21167H41.8999V8.45472L41.7695 17.0236V18.7015H38.8046Z" fill="white"/>
<path d="M61.1884 16.3394C58.8588 18.4083 56.5292 18.9947 54.4115 18.9947C48.8238 18.9947 45.0281 14.9058 45.0281 9.4973C45.0281 3.90962 49.1007 -0.00012207 54.5418 -0.00012207C56.9202 -0.00012207 59.0706 0.765537 61.1558 2.62267L60.2109 5.48981C58.8262 3.74672 56.741 2.67154 54.4115 2.67154C50.7461 2.67154 48.3351 5.35949 48.3351 9.23665C48.3351 12.7391 50.2899 16.2905 54.3789 16.2905C56.2523 16.2905 58.0931 15.5574 60.0969 13.5537L61.1884 16.3394Z" fill="white"/>
<path d="M64.1677 18.7015V17.0236L64.0374 8.21036V0.21167H74.61V3.06253H67.2629V7.39583H72.3619V10.2467H67.2303L67.1489 15.8669H74.61V18.7178H64.1677V18.7015Z" fill="white"/>
<path d="M92.236 18.7008L91.34 7.90017L86.9741 18.5542H85.4754L80.8977 8.32373L80.2461 18.7171H77.1509L78.2912 0.227295H80.6534L86.241 12.5919L91.5355 0.227295H93.8976L95.3312 18.7171H92.236V18.7008Z" fill="white"/>
<path d="M99.0139 18.7015V17.0236L98.8835 8.45472V0.21167H102.109V8.45472L101.979 17.0236V18.7015H99.0139Z" fill="white"/>
<path d="M117.245 18.7015L112.309 11.2241L107.259 18.7015H103.87L110.729 8.8294L104.783 0.21167H108.383L112.537 6.36952L116.691 0.21167H120.128L114.101 8.8294L120.829 18.7015H117.245Z" fill="white"/>
</svg>
